  0
SECTION
  2
HEADER
  9
$ACADVER
  1
AC1009
  9
$FILLMODE
 70
 0
  9
$SPLFRAME
 70
 1
  9
$EXTMIN
 10
0
 20
0
 30
0.0
  9
$EXTMAX
 10
41.6667
 20
41.6667
 30
0.0
  0
ENDSEC
  0
SECTION
  2
TABLES
  0
TABLE
  2
LAYER
 70
1
  0
LAYER
  2
0
 70
     0
 62
     7
  6
CONTINUOUS
  0
ENDTAB
  0
ENDSEC
  0
SECTION
  2
ENTITIES
  0
POLYLINE
  8
0
 62
     0
 66
     1
 10
0
 20
0
 30
0.0
 70
     1
 40
0
 41
0
  0
VERTEX
  8
0
 10
5.5
 20
5.33333
 30
0.0
 40
0
 41
0
  0
VERTEX
  8
0
 10
0.5
 20
5.33333
 30
0.0
 40
0
 41
0
  0
VERTEX
  8
0
 10
0.474772
 20
5.33333
 30
0.0
 40
0
 41
0
  0
VERTEX
  8
0
 10
0.399251
 20
5.32319
 30
0.0
 40
0
 41
0
  0
VERTEX
  8
0
 10
0.305393
 20
5.29406
 30
0.0
 40
0
 41
0
  0
VERTEX
  8
0
 10
0.220486
 20
5.24794
 30
0.0
 40
0
 41
0
  0
VERTEX
  8
0
 10
0.146485
 20
5.18685
 30
0.0
 40
0
 41
0
  0
VERTEX
  8
0
 10
0.085395
 20
5.11285
 30
0.0
 40
0
 41
0
  0
VERTEX
  8
0
 10
0.0392796
 20
5.02794
 30
0.0
 40
0
 41
0
  0
VERTEX
  8
0
 10
0.0101454
 20
4.93408
 30
0.0
 40
0
 41
0
  0
VERTEX
  8
0
 10
0
 20
4.85856
 30
0.0
 40
0
 41
0
  0
VERTEX
  8
0
 10
0
 20
4.83333
 30
0.0
 40
0
 41
0
  0
VERTEX
  8
0
 10
0
 20
1.5
 30
0.0
 40
0
 41
0
  0
VERTEX
  8
0
 10
0
 20
1.47483
 30
0.0
 40
0
 41
0
  0
VERTEX
  8
0
 10
0.0101454
 20
1.39931
 30
0.0
 40
0
 41
0
  0
VERTEX
  8
0
 10
0.0392796
 20
1.30545
 30
0.0
 40
0
 41
0
  0
VERTEX
  8
0
 10
0.085395
 20
1.22054
 30
0.0
 40
0
 41
0
  0
VERTEX
  8
0
 10
0.146485
 20
1.14648
 30
0.0
 40
0
 41
0
  0
VERTEX
  8
0
 10
0.220486
 20
1.08545
 30
0.0
 40
0
 41
0
  0
VERTEX
  8
0
 10
0.305393
 20
1.03933
 30
0.0
 40
0
 41
0
  0
VERTEX
  8
0
 10
0.399251
 20
1.0102
 30
0.0
 40
0
 41
0
  0
VERTEX
  8
0
 10
0.474772
 20
1
 30
0.0
 40
0
 41
0
  0
VERTEX
  8
0
 10
0.5
 20
1
 30
0.0
 40
0
 41
0
  0
VERTEX
  8
0
 10
2.5
 20
1
 30
0.0
 40
0
 41
0
  0
VERTEX
  8
0
 10
2.33333
 20
0.5
 30
0.0
 40
0
 41
0
  0
VERTEX
  8
0
 10
1.58333
 20
0.5
 30
0.0
 40
0
 41
0
  0
VERTEX
  8
0
 10
1.55892
 20
0.5
 30
0.0
 40
0
 41
0
  0
VERTEX
  8
0
 10
1.48579
 20
0.480469
 30
0.0
 40
0
 41
0
  0
VERTEX
  8
0
 10
1.40636
 20
0.426975
 30
0.0
 40
0
 41
0
  0
VERTEX
  8
0
 10
1.35287
 20
0.347547
 30
0.0
 40
0
 41
0
  0
VERTEX
  8
0
 10
1.33333
 20
0.274414
 30
0.0
 40
0
 41
0
  0
VERTEX
  8
0
 10
1.33333
 20
0.25
 30
0.0
 40
0
 41
0
  0
VERTEX
  8
0
 10
1.33333
 20
0.22564
 30
0.0
 40
0
 41
0
  0
VERTEX
  8
0
 10
1.35287
 20
0.152507
 30
0.0
 40
0
 41
0
  0
VERTEX
  8
0
 10
1.40636
 20
0.0730794
 30
0.0
 40
0
 41
0
  0
VERTEX
  8
0
 10
1.48579
 20
0.0195856
 30
0.0
 40
0
 41
0
  0
VERTEX
  8
0
 10
1.55892
 20
0
 30
0.0
 40
0
 41
0
  0
VERTEX
  8
0
 10
1.58333
 20
0
 30
0.0
 40
0
 41
0
  0
VERTEX
  8
0
 10
4.41667
 20
0
 30
0.0
 40
0
 41
0
  0
VERTEX
  8
0
 10
4.44103
 20
0
 30
0.0
 40
0
 41
0
  0
VERTEX
  8
0
 10
4.51417
 20
0.0195856
 30
0.0
 40
0
 41
0
  0
VERTEX
  8
0
 10
4.59358
 20
0.0730794
 30
0.0
 40
0
 41
0
  0
VERTEX
  8
0
 10
4.64708
 20
0.152507
 30
0.0
 40
0
 41
0
  0
VERTEX
  8
0
 10
4.66667
 20
0.22564
 30
0.0
 40
0
 41
0
  0
VERTEX
  8
0
 10
4.66667
 20
0.25
 30
0.0
 40
0
 41
0
  0
VERTEX
  8
0
 10
4.66667
 20
0.274414
 30
0.0
 40
0
 41
0
  0
VERTEX
  8
0
 10
4.64708
 20
0.347547
 30
0.0
 40
0
 41
0
  0
VERTEX
  8
0
 10
4.59358
 20
0.426975
 30
0.0
 40
0
 41
0
  0
VERTEX
  8
0
 10
4.51417
 20
0.480469
 30
0.0
 40
0
 41
0
  0
VERTEX
  8
0
 10
4.44103
 20
0.5
 30
0.0
 40
0
 41
0
  0
VERTEX
  8
0
 10
4.41667
 20
0.5
 30
0.0
 40
0
 41
0
  0
VERTEX
  8
0
 10
3.66667
 20
0.5
 30
0.0
 40
0
 41
0
  0
VERTEX
  8
0
 10
3.5
 20
1
 30
0.0
 40
0
 41
0
  0
VERTEX
  8
0
 10
5.5
 20
1
 30
0.0
 40
0
 41
0
  0
VERTEX
  8
0
 10
5.52518
 20
1
 30
0.0
 40
0
 41
0
  0
VERTEX
  8
0
 10
5.60069
 20
1.0102
 30
0.0
 40
0
 41
0
  0
VERTEX
  8
0
 10
5.69456
 20
1.03933
 30
0.0
 40
0
 41
0
  0
VERTEX
  8
0
 10
5.77946
 20
1.08545
 30
0.0
 40
0
 41
0
  0
VERTEX
  8
0
 10
5.85351
 20
1.14648
 30
0.0
 40
0
 41
0
  0
VERTEX
  8
0
 10
5.91456
 20
1.22054
 30
0.0
 40
0
 41
0
  0
VERTEX
  8
0
 10
5.96067
 20
1.30545
 30
0.0
 40
0
 41
0
  0
VERTEX
  8
0
 10
5.98981
 20
1.39931
 30
0.0
 40
0
 41
0
  0
VERTEX
  8
0
 10
6
 20
1.47483
 30
0.0
 40
0
 41
0
  0
VERTEX
  8
0
 10
6
 20
1.5
 30
0.0
 40
0
 41
0
  0
VERTEX
  8
0
 10
6
 20
4.83333
 30
0.0
 40
0
 41
0
  0
VERTEX
  8
0
 10
6
 20
4.85856
 30
0.0
 40
0
 41
0
  0
VERTEX
  8
0
 10
5.98981
 20
4.93408
 30
0.0
 40
0
 41
0
  0
VERTEX
  8
0
 10
5.96067
 20
5.02794
 30
0.0
 40
0
 41
0
  0
VERTEX
  8
0
 10
5.91456
 20
5.11285
 30
0.0
 40
0
 41
0
  0
VERTEX
  8
0
 10
5.85351
 20
5.18685
 30
0.0
 40
0
 41
0
  0
VERTEX
  8
0
 10
5.77946
 20
5.24794
 30
0.0
 40
0
 41
0
  0
VERTEX
  8
0
 10
5.69456
 20
5.29406
 30
0.0
 40
0
 41
0
  0
VERTEX
  8
0
 10
5.60069
 20
5.32319
 30
0.0
 40
0
 41
0
  0
VERTEX
  8
0
 10
5.52518
 20
5.33333
 30
0.0
 40
0
 41
0
  0
VERTEX
  8
0
 10
5.5
 20
5.33333
 30
0.0
 40
0
 41
0
  0
SEQEND
 8
0
  0
POLYLINE
  8
0
 62
     0
 66
     1
 10
0
 20
0
 30
0.0
 70
     1
 40
0
 41
0
  0
VERTEX
  8
0
 10
5.33333
 20
1.66667
 30
0.0
 40
0
 41
0
  0
VERTEX
  8
0
 10
0.666667
 20
1.66667
 30
0.0
 40
0
 41
0
  0
VERTEX
  8
0
 10
0.666667
 20
4.66667
 30
0.0
 40
0
 41
0
  0
VERTEX
  8
0
 10
5.33333
 20
4.66667
 30
0.0
 40
0
 41
0
  0
VERTEX
  8
0
 10
5.33333
 20
1.66667
 30
0.0
 40
0
 41
0
  0
SEQEND
 8
0
  0
ENDSEC
  0
EOF
