  0
SECTION
  2
HEADER
  9
$ACADVER
  1
AC1009
  9
$FILLMODE
 70
 0
  9
$SPLFRAME
 70
 1
  9
$EXTMIN
 10
0
 20
0
 30
0.0
  9
$EXTMAX
 10
41.6667
 20
41.6667
 30
0.0
  0
ENDSEC
  0
SECTION
  2
TABLES
  0
TABLE
  2
LAYER
 70
1
  0
LAYER
  2
0
 70
     0
 62
     7
  6
CONTINUOUS
  0
ENDTAB
  0
ENDSEC
  0
SECTION
  2
ENTITIES
  0
POLYLINE
  8
0
 62
     0
 66
     1
 10
0
 20
0
 30
0.0
 70
     1
 40
0
 41
0
  0
VERTEX
  8
0
 10
3.33333
 20
5
 30
0.0
 40
0
 41
0
  0
VERTEX
  8
0
 10
3.33333
 20
5.01682
 30
0.0
 40
0
 41
0
  0
VERTEX
  8
0
 10
3.32656
 20
5.06722
 30
0.0
 40
0
 41
0
  0
VERTEX
  8
0
 10
3.30713
 20
5.12978
 30
0.0
 40
0
 41
0
  0
VERTEX
  8
0
 10
3.27636
 20
5.18642
 30
0.0
 40
0
 41
0
  0
VERTEX
  8
0
 10
3.23568
 20
5.23574
 30
0.0
 40
0
 41
0
  0
VERTEX
  8
0
 10
3.18636
 20
5.27642
 30
0.0
 40
0
 41
0
  0
VERTEX
  8
0
 10
3.12972
 20
5.30718
 30
0.0
 40
0
 41
0
  0
VERTEX
  8
0
 10
3.06717
 20
5.32661
 30
0.0
 40
0
 41
0
  0
VERTEX
  8
0
 10
3.01676
 20
5.33333
 30
0.0
 40
0
 41
0
  0
VERTEX
  8
0
 10
3
 20
5.33333
 30
0.0
 40
0
 41
0
  0
VERTEX
  8
0
 10
2.98318
 20
5.33333
 30
0.0
 40
0
 41
0
  0
VERTEX
  8
0
 10
2.93278
 20
5.32661
 30
0.0
 40
0
 41
0
  0
VERTEX
  8
0
 10
2.87022
 20
5.30718
 30
0.0
 40
0
 41
0
  0
VERTEX
  8
0
 10
2.81358
 20
5.27642
 30
0.0
 40
0
 41
0
  0
VERTEX
  8
0
 10
2.76426
 20
5.23574
 30
0.0
 40
0
 41
0
  0
VERTEX
  8
0
 10
2.72358
 20
5.18642
 30
0.0
 40
0
 41
0
  0
VERTEX
  8
0
 10
2.69282
 20
5.12978
 30
0.0
 40
0
 41
0
  0
VERTEX
  8
0
 10
2.67339
 20
5.06722
 30
0.0
 40
0
 41
0
  0
VERTEX
  8
0
 10
2.66667
 20
5.01682
 30
0.0
 40
0
 41
0
  0
VERTEX
  8
0
 10
2.66667
 20
5
 30
0.0
 40
0
 41
0
  0
VERTEX
  8
0
 10
2.66667
 20
4
 30
0.0
 40
0
 41
0
  0
VERTEX
  8
0
 10
3.33333
 20
4
 30
0.0
 40
0
 41
0
  0
VERTEX
  8
0
 10
3.33333
 20
5
 30
0.0
 40
0
 41
0
  0
SEQEND
 8
0
  0
POLYLINE
  8
0
 62
     0
 66
     1
 10
0
 20
0
 30
0.0
 70
     1
 40
0
 41
0
  0
VERTEX
  8
0
 10
3.83333
 20
3.66667
 30
0.0
 40
0
 41
0
  0
VERTEX
  8
0
 10
0.166667
 20
3.66667
 30
0.0
 40
0
 41
0
  0
VERTEX
  8
0
 10
0.158257
 20
3.66667
 30
0.0
 40
0
 41
0
  0
VERTEX
  8
0
 10
0.13303
 20
3.66331
 30
0.0
 40
0
 41
0
  0
VERTEX
  8
0
 10
0.10178
 20
3.6536
 30
0.0
 40
0
 41
0
  0
VERTEX
  8
0
 10
0.0734592
 20
3.63824
 30
0.0
 40
0
 41
0
  0
VERTEX
  8
0
 10
0.0487739
 20
3.61789
 30
0.0
 40
0
 41
0
  0
VERTEX
  8
0
 10
0.0284289
 20
3.59321
 30
0.0
 40
0
 41
0
  0
VERTEX
  8
0
 10
0.0130751
 20
3.56489
 30
0.0
 40
0
 41
0
  0
VERTEX
  8
0
 10
0.00336372
 20
3.53364
 30
0.0
 40
0
 41
0
  0
VERTEX
  8
0
 10
0
 20
3.5084
 30
0.0
 40
0
 41
0
  0
VERTEX
  8
0
 10
0
 20
3.5
 30
0.0
 40
0
 41
0
  0
VERTEX
  8
0
 10
0
 20
3.16667
 30
0.0
 40
0
 41
0
  0
VERTEX
  8
0
 10
0
 20
3.15831
 30
0.0
 40
0
 41
0
  0
VERTEX
  8
0
 10
0.00336372
 20
3.13308
 30
0.0
 40
0
 41
0
  0
VERTEX
  8
0
 10
0.0130751
 20
3.10183
 30
0.0
 40
0
 41
0
  0
VERTEX
  8
0
 10
0.0284289
 20
3.07351
 30
0.0
 40
0
 41
0
  0
VERTEX
  8
0
 10
0.0487739
 20
3.04883
 30
0.0
 40
0
 41
0
  0
VERTEX
  8
0
 10
0.0734592
 20
3.02849
 30
0.0
 40
0
 41
0
  0
VERTEX
  8
0
 10
0.10178
 20
3.01313
 30
0.0
 40
0
 41
0
  0
VERTEX
  8
0
 10
0.13303
 20
3.00342
 30
0.0
 40
0
 41
0
  0
VERTEX
  8
0
 10
0.158257
 20
3
 30
0.0
 40
0
 41
0
  0
VERTEX
  8
0
 10
0.166667
 20
3
 30
0.0
 40
0
 41
0
  0
VERTEX
  8
0
 10
0.333333
 20
3
 30
0.0
 40
0
 41
0
  0
VERTEX
  8
0
 10
0.333333
 20
2.66667
 30
0.0
 40
0
 41
0
  0
VERTEX
  8
0
 10
0.333333
 20
2.59392
 30
0.0
 40
0
 41
0
  0
VERTEX
  8
0
 10
0.358778
 20
2.37565
 30
0.0
 40
0
 41
0
  0
VERTEX
  8
0
 10
0.432563
 20
2.09967
 30
0.0
 40
0
 41
0
  0
VERTEX
  8
0
 10
0.550618
 20
1.84369
 30
0.0
 40
0
 41
0
  0
VERTEX
  8
0
 10
0.709039
 20
1.61253
 30
0.0
 40
0
 41
0
  0
VERTEX
  8
0
 10
0.903808
 20
1.41108
 30
0.0
 40
0
 41
0
  0
VERTEX
  8
0
 10
1.13097
 20
1.24414
 30
0.0
 40
0
 41
0
  0
VERTEX
  8
0
 10
1.38656
 20
1.11659
 30
0.0
 40
0
 41
0
  0
VERTEX
  8
0
 10
1.59532
 20
1.04791
 30
0.0
 40
0
 41
0
  0
VERTEX
  8
0
 10
1.66667
 20
1.03331
 30
0.0
 40
0
 41
0
  0
VERTEX
  8
0
 10
1.66667
 20
0
 30
0.0
 40
0
 41
0
  0
VERTEX
  8
0
 10
2.33333
 20
0
 30
0.0
 40
0
 41
0
  0
VERTEX
  8
0
 10
2.33333
 20
1.03331
 30
0.0
 40
0
 41
0
  0
VERTEX
  8
0
 10
2.40462
 20
1.04791
 30
0.0
 40
0
 41
0
  0
VERTEX
  8
0
 10
2.61339
 20
1.11659
 30
0.0
 40
0
 41
0
  0
VERTEX
  8
0
 10
2.86897
 20
1.24414
 30
0.0
 40
0
 41
0
  0
VERTEX
  8
0
 10
3.09614
 20
1.41108
 30
0.0
 40
0
 41
0
  0
VERTEX
  8
0
 10
3.2909
 20
1.61253
 30
0.0
 40
0
 41
0
  0
VERTEX
  8
0
 10
3.44933
 20
1.84369
 30
0.0
 40
0
 41
0
  0
VERTEX
  8
0
 10
3.56739
 20
2.09967
 30
0.0
 40
0
 41
0
  0
VERTEX
  8
0
 10
3.64117
 20
2.37565
 30
0.0
 40
0
 41
0
  0
VERTEX
  8
0
 10
3.66667
 20
2.59392
 30
0.0
 40
0
 41
0
  0
VERTEX
  8
0
 10
3.66667
 20
2.66667
 30
0.0
 40
0
 41
0
  0
VERTEX
  8
0
 10
3.66667
 20
3
 30
0.0
 40
0
 41
0
  0
VERTEX
  8
0
 10
3.83333
 20
3
 30
0.0
 40
0
 41
0
  0
VERTEX
  8
0
 10
3.84169
 20
3
 30
0.0
 40
0
 41
0
  0
VERTEX
  8
0
 10
3.86692
 20
3.00342
 30
0.0
 40
0
 41
0
  0
VERTEX
  8
0
 10
3.89817
 20
3.01313
 30
0.0
 40
0
 41
0
  0
VERTEX
  8
0
 10
3.92649
 20
3.02849
 30
0.0
 40
0
 41
0
  0
VERTEX
  8
0
 10
3.95117
 20
3.04883
 30
0.0
 40
0
 41
0
  0
VERTEX
  8
0
 10
3.97151
 20
3.07351
 30
0.0
 40
0
 41
0
  0
VERTEX
  8
0
 10
3.98687
 20
3.10183
 30
0.0
 40
0
 41
0
  0
VERTEX
  8
0
 10
3.99658
 20
3.13308
 30
0.0
 40
0
 41
0
  0
VERTEX
  8
0
 10
4
 20
3.15831
 30
0.0
 40
0
 41
0
  0
VERTEX
  8
0
 10
4
 20
3.16667
 30
0.0
 40
0
 41
0
  0
VERTEX
  8
0
 10
4
 20
3.5
 30
0.0
 40
0
 41
0
  0
VERTEX
  8
0
 10
4
 20
3.5084
 30
0.0
 40
0
 41
0
  0
VERTEX
  8
0
 10
3.99658
 20
3.53364
 30
0.0
 40
0
 41
0
  0
VERTEX
  8
0
 10
3.98687
 20
3.56489
 30
0.0
 40
0
 41
0
  0
VERTEX
  8
0
 10
3.97151
 20
3.59321
 30
0.0
 40
0
 41
0
  0
VERTEX
  8
0
 10
3.95117
 20
3.61789
 30
0.0
 40
0
 41
0
  0
VERTEX
  8
0
 10
3.92649
 20
3.63824
 30
0.0
 40
0
 41
0
  0
VERTEX
  8
0
 10
3.89817
 20
3.6536
 30
0.0
 40
0
 41
0
  0
VERTEX
  8
0
 10
3.86692
 20
3.66331
 30
0.0
 40
0
 41
0
  0
VERTEX
  8
0
 10
3.84169
 20
3.66667
 30
0.0
 40
0
 41
0
  0
VERTEX
  8
0
 10
3.83333
 20
3.66667
 30
0.0
 40
0
 41
0
  0
SEQEND
 8
0
  0
POLYLINE
  8
0
 62
     0
 66
     1
 10
0
 20
0
 30
0.0
 70
     1
 40
0
 41
0
  0
VERTEX
  8
0
 10
1.33333
 20
5
 30
0.0
 40
0
 41
0
  0
VERTEX
  8
0
 10
1.33333
 20
5.01682
 30
0.0
 40
0
 41
0
  0
VERTEX
  8
0
 10
1.32655
 20
5.06722
 30
0.0
 40
0
 41
0
  0
VERTEX
  8
0
 10
1.30713
 20
5.12978
 30
0.0
 40
0
 41
0
  0
VERTEX
  8
0
 10
1.27637
 20
5.18642
 30
0.0
 40
0
 41
0
  0
VERTEX
  8
0
 10
1.23568
 20
5.23574
 30
0.0
 40
0
 41
0
  0
VERTEX
  8
0
 10
1.18636
 20
5.27642
 30
0.0
 40
0
 41
0
  0
VERTEX
  8
0
 10
1.12972
 20
5.30718
 30
0.0
 40
0
 41
0
  0
VERTEX
  8
0
 10
1.06717
 20
5.32661
 30
0.0
 40
0
 41
0
  0
VERTEX
  8
0
 10
1.01676
 20
5.33333
 30
0.0
 40
0
 41
0
  0
VERTEX
  8
0
 10
1
 20
5.33333
 30
0.0
 40
0
 41
0
  0
VERTEX
  8
0
 10
0.983182
 20
5.33333
 30
0.0
 40
0
 41
0
  0
VERTEX
  8
0
 10
0.932781
 20
5.32661
 30
0.0
 40
0
 41
0
  0
VERTEX
  8
0
 10
0.870226
 20
5.30718
 30
0.0
 40
0
 41
0
  0
VERTEX
  8
0
 10
0.813585
 20
5.27642
 30
0.0
 40
0
 41
0
  0
VERTEX
  8
0
 10
0.764268
 20
5.23574
 30
0.0
 40
0
 41
0
  0
VERTEX
  8
0
 10
0.723579
 20
5.18642
 30
0.0
 40
0
 41
0
  0
VERTEX
  8
0
 10
0.692817
 20
5.12978
 30
0.0
 40
0
 41
0
  0
VERTEX
  8
0
 10
0.673394
 20
5.06722
 30
0.0
 40
0
 41
0
  0
VERTEX
  8
0
 10
0.666667
 20
5.01682
 30
0.0
 40
0
 41
0
  0
VERTEX
  8
0
 10
0.666667
 20
5
 30
0.0
 40
0
 41
0
  0
VERTEX
  8
0
 10
0.666667
 20
4
 30
0.0
 40
0
 41
0
  0
VERTEX
  8
0
 10
1.33333
 20
4
 30
0.0
 40
0
 41
0
  0
VERTEX
  8
0
 10
1.33333
 20
5
 30
0.0
 40
0
 41
0
  0
SEQEND
 8
0
  0
ENDSEC
  0
EOF
