  0
SECTION
  2
HEADER
  9
$ACADVER
  1
AC1009
  9
$FILLMODE
 70
 0
  9
$SPLFRAME
 70
 1
  9
$EXTMIN
 10
0
 20
0
 30
0.0
  9
$EXTMAX
 10
41.6667
 20
41.6667
 30
0.0
  0
ENDSEC
  0
SECTION
  2
TABLES
  0
TABLE
  2
LAYER
 70
1
  0
LAYER
  2
0
 70
     0
 62
     7
  6
CONTINUOUS
  0
ENDTAB
  0
ENDSEC
  0
SECTION
  2
ENTITIES
  0
POLYLINE
  8
0
 62
     0
 66
     1
 10
0
 20
0
 30
0.0
 70
     1
 40
0
 41
0
  0
VERTEX
  8
0
 10
2.90625
 20
3
 30
0.0
 40
0
 41
0
  0
VERTEX
  8
0
 10
0.427083
 20
3
 30
0.0
 40
0
 41
0
  0
VERTEX
  8
0
 10
0.407553
 20
3
 30
0.0
 40
0
 41
0
  0
VERTEX
  8
0
 10
0.349013
 20
3.01193
 30
0.0
 40
0
 41
0
  0
VERTEX
  8
0
 10
0.283203
 20
3.04465
 30
0.0
 40
0
 41
0
  0
VERTEX
  8
0
 10
0.231608
 20
3.09369
 30
0.0
 40
0
 41
0
  0
VERTEX
  8
0
 10
0.195964
 20
3.15457
 30
0.0
 40
0
 41
0
  0
VERTEX
  8
0
 10
0.178114
 20
3.22287
 30
0.0
 40
0
 41
0
  0
VERTEX
  8
0
 10
0.179958
 20
3.294
 30
0.0
 40
0
 41
0
  0
VERTEX
  8
0
 10
0.203287
 20
3.36361
 30
0.0
 40
0
 41
0
  0
VERTEX
  8
0
 10
0.236219
 20
3.41336
 30
0.0
 40
0
 41
0
  0
VERTEX
  8
0
 10
0.25
 20
3.42708
 30
0.0
 40
0
 41
0
  0
VERTEX
  8
0
 10
1.48958
 20
4.66667
 30
0.0
 40
0
 41
0
  0
VERTEX
  8
0
 10
1.50678
 20
4.68392
 30
0.0
 40
0
 41
0
  0
VERTEX
  8
0
 10
1.57243
 20
4.72179
 30
0.0
 40
0
 41
0
  0
VERTEX
  8
0
 10
1.6665
 20
4.74013
 30
0.0
 40
0
 41
0
  0
VERTEX
  8
0
 10
1.76042
 20
4.72179
 30
0.0
 40
0
 41
0
  0
VERTEX
  8
0
 10
1.82563
 20
4.68392
 30
0.0
 40
0
 41
0
  0
VERTEX
  8
0
 10
1.84272
 20
4.66667
 30
0.0
 40
0
 41
0
  0
VERTEX
  8
0
 10
3.08231
 20
3.42708
 30
0.0
 40
0
 41
0
  0
VERTEX
  8
0
 10
3.09614
 20
3.41336
 30
0.0
 40
0
 41
0
  0
VERTEX
  8
0
 10
3.12929
 20
3.36361
 30
0.0
 40
0
 41
0
  0
VERTEX
  8
0
 10
3.15289
 20
3.294
 30
0.0
 40
0
 41
0
  0
VERTEX
  8
0
 10
3.15494
 20
3.22287
 30
0.0
 40
0
 41
0
  0
VERTEX
  8
0
 10
3.13721
 20
3.15457
 30
0.0
 40
0
 41
0
  0
VERTEX
  8
0
 10
3.10161
 20
3.09369
 30
0.0
 40
0
 41
0
  0
VERTEX
  8
0
 10
3.05003
 20
3.04465
 30
0.0
 40
0
 41
0
  0
VERTEX
  8
0
 10
2.98426
 20
3.01193
 30
0.0
 40
0
 41
0
  0
VERTEX
  8
0
 10
2.92572
 20
3
 30
0.0
 40
0
 41
0
  0
VERTEX
  8
0
 10
2.90625
 20
3
 30
0.0
 40
0
 41
0
  0
SEQEND
 8
0
  0
ENDSEC
  0
EOF
