  0
SECTION
  2
HEADER
  9
$ACADVER
  1
AC1009
  9
$FILLMODE
 70
 0
  9
$SPLFRAME
 70
 1
  9
$EXTMIN
 10
0
 20
0
 30
0.0
  9
$EXTMAX
 10
41.6667
 20
41.6667
 30
0.0
  0
ENDSEC
  0
SECTION
  2
TABLES
  0
TABLE
  2
LAYER
 70
1
  0
LAYER
  2
0
 70
     0
 62
     7
  6
CONTINUOUS
  0
ENDTAB
  0
ENDSEC
  0
SECTION
  2
ENTITIES
  0
POLYLINE
  8
0
 62
     0
 66
     1
 10
0
 20
0
 30
0.0
 70
     1
 40
0
 41
0
  0
VERTEX
  8
0
 10
0.427083
 20
2.33333
 30
0.0
 40
0
 41
0
  0
VERTEX
  8
0
 10
2.90625
 20
2.33333
 30
0.0
 40
0
 41
0
  0
VERTEX
  8
0
 10
2.92572
 20
2.33333
 30
0.0
 40
0
 41
0
  0
VERTEX
  8
0
 10
2.98426
 20
2.32146
 30
0.0
 40
0
 41
0
  0
VERTEX
  8
0
 10
3.05007
 20
2.28874
 30
0.0
 40
0
 41
0
  0
VERTEX
  8
0
 10
3.10167
 20
2.23969
 30
0.0
 40
0
 41
0
  0
VERTEX
  8
0
 10
3.13738
 20
2.17882
 30
0.0
 40
0
 41
0
  0
VERTEX
  8
0
 10
3.15517
 20
2.11051
 30
0.0
 40
0
 41
0
  0
VERTEX
  8
0
 10
3.15332
 20
2.03939
 30
0.0
 40
0
 41
0
  0
VERTEX
  8
0
 10
3.12999
 20
1.96978
 30
0.0
 40
0
 41
0
  0
VERTEX
  8
0
 10
3.09706
 20
1.92003
 30
0.0
 40
0
 41
0
  0
VERTEX
  8
0
 10
3.08333
 20
1.90625
 30
0.0
 40
0
 41
0
  0
VERTEX
  8
0
 10
1.84375
 20
0.666667
 30
0.0
 40
0
 41
0
  0
VERTEX
  8
0
 10
1.8265
 20
0.649468
 30
0.0
 40
0
 41
0
  0
VERTEX
  8
0
 10
1.76085
 20
0.6116
 30
0.0
 40
0
 41
0
  0
VERTEX
  8
0
 10
1.66678
 20
0.593261
 30
0.0
 40
0
 41
0
  0
VERTEX
  8
0
 10
1.57286
 20
0.6116
 30
0.0
 40
0
 41
0
  0
VERTEX
  8
0
 10
1.50765
 20
0.649468
 30
0.0
 40
0
 41
0
  0
VERTEX
  8
0
 10
1.49061
 20
0.666667
 30
0.0
 40
0
 41
0
  0
VERTEX
  8
0
 10
0.25
 20
1.90625
 30
0.0
 40
0
 41
0
  0
VERTEX
  8
0
 10
0.236219
 20
1.92003
 30
0.0
 40
0
 41
0
  0
VERTEX
  8
0
 10
0.203287
 20
1.96978
 30
0.0
 40
0
 41
0
  0
VERTEX
  8
0
 10
0.179958
 20
2.03939
 30
0.0
 40
0
 41
0
  0
VERTEX
  8
0
 10
0.178114
 20
2.11051
 30
0.0
 40
0
 41
0
  0
VERTEX
  8
0
 10
0.195964
 20
2.17882
 30
0.0
 40
0
 41
0
  0
VERTEX
  8
0
 10
0.231608
 20
2.23969
 30
0.0
 40
0
 41
0
  0
VERTEX
  8
0
 10
0.283203
 20
2.28874
 30
0.0
 40
0
 41
0
  0
VERTEX
  8
0
 10
0.349013
 20
2.32146
 30
0.0
 40
0
 41
0
  0
VERTEX
  8
0
 10
0.407553
 20
2.33333
 30
0.0
 40
0
 41
0
  0
VERTEX
  8
0
 10
0.427083
 20
2.33333
 30
0.0
 40
0
 41
0
  0
SEQEND
 8
0
  0
ENDSEC
  0
EOF
