  0
SECTION
  2
HEADER
  9
$ACADVER
  1
AC1009
  9
$FILLMODE
 70
 0
  9
$SPLFRAME
 70
 1
  9
$EXTMIN
 10
0
 20
0
 30
0.0
  9
$EXTMAX
 10
41.6667
 20
41.6667
 30
0.0
  0
ENDSEC
  0
SECTION
  2
TABLES
  0
TABLE
  2
LAYER
 70
1
  0
LAYER
  2
0
 70
     0
 62
     7
  6
CONTINUOUS
  0
ENDTAB
  0
ENDSEC
  0
SECTION
  2
ENTITIES
  0
POLYLINE
  8
0
 62
     0
 66
     1
 10
0
 20
0
 30
0.0
 70
     1
 40
0
 41
0
  0
VERTEX
  8
0
 10
3.86165
 20
3.94499
 30
0.0
 40
0
 41
0
  0
VERTEX
  8
0
 10
3.8016
 20
4.00125
 30
0.0
 40
0
 41
0
  0
VERTEX
  8
0
 10
3.60032
 20
4.1474
 30
0.0
 40
0
 41
0
  0
VERTEX
  8
0
 10
3.30935
 20
4.29536
 30
0.0
 40
0
 41
0
  0
VERTEX
  8
0
 10
2.99539
 20
4.38601
 30
0.0
 40
0
 41
0
  0
VERTEX
  8
0
 10
2.74761
 20
4.41678
 30
0.0
 40
0
 41
0
  0
VERTEX
  8
0
 10
2.6651
 20
4.41667
 30
0.0
 40
0
 41
0
  0
VERTEX
  8
0
 10
2.59093
 20
4.41661
 30
0.0
 40
0
 41
0
  0
VERTEX
  8
0
 10
2.36843
 20
4.39117
 30
0.0
 40
0
 41
0
  0
VERTEX
  8
0
 10
2.08675
 20
4.31787
 30
0.0
 40
0
 41
0
  0
VERTEX
  8
0
 10
1.82465
 20
4.20063
 30
0.0
 40
0
 41
0
  0
VERTEX
  8
0
 10
1.58675
 20
4.04351
 30
0.0
 40
0
 41
0
  0
VERTEX
  8
0
 10
1.37766
 20
3.85047
 30
0.0
 40
0
 41
0
  0
VERTEX
  8
0
 10
1.20193
 20
3.62549
 30
0.0
 40
0
 41
0
  0
VERTEX
  8
0
 10
1.06429
 20
3.37244
 30
0.0
 40
0
 41
0
  0
VERTEX
  8
0
 10
0.987033
 20
3.16613
 30
0.0
 40
0
 41
0
  0
VERTEX
  8
0
 10
0.969347
 20
3.09532
 30
0.0
 40
0
 41
0
  0
VERTEX
  8
0
 10
0.966797
 20
3.08529
 30
0.0
 40
0
 41
0
  0
VERTEX
  8
0
 10
0.952528
 20
3.05686
 30
0.0
 40
0
 41
0
  0
VERTEX
  8
0
 10
0.925022
 20
3.02675
 30
0.0
 40
0
 41
0
  0
VERTEX
  8
0
 10
0.889268
 20
3.00706
 30
0.0
 40
0
 41
0
  0
VERTEX
  8
0
 10
0.85829
 20
3
 30
0.0
 40
0
 41
0
  0
VERTEX
  8
0
 10
0.847982
 20
3
 30
0.0
 40
0
 41
0
  0
VERTEX
  8
0
 10
0.251085
 20
3
 30
0.0
 40
0
 41
0
  0
VERTEX
  8
0
 10
0.237522
 20
3
 30
0.0
 40
0
 41
0
  0
VERTEX
  8
0
 10
0.196832
 20
3.01232
 30
0.0
 40
0
 41
0
  0
VERTEX
  8
0
 10
0.154839
 20
3.04508
 30
0.0
 40
0
 41
0
  0
VERTEX
  8
0
 10
0.130208
 20
3.09224
 30
0.0
 40
0
 41
0
  0
VERTEX
  8
0
 10
0.125597
 20
3.13439
 30
0.0
 40
0
 41
0
  0
VERTEX
  8
0
 10
0.128093
 20
3.14768
 30
0.0
 40
0
 41
0
  0
VERTEX
  8
0
 10
0.138563
 20
3.2034
 30
0.0
 40
0
 41
0
  0
VERTEX
  8
0
 10
0.17985
 20
3.36854
 30
0.0
 40
0
 41
0
  0
VERTEX
  8
0
 10
0.250054
 20
3.58165
 30
0.0
 40
0
 41
0
  0
VERTEX
  8
0
 10
0.337836
 20
3.78618
 30
0.0
 40
0
 41
0
  0
VERTEX
  8
0
 10
0.442275
 20
3.98112
 30
0.0
 40
0
 41
0
  0
VERTEX
  8
0
 10
0.562446
 20
4.16564
 30
0.0
 40
0
 41
0
  0
VERTEX
  8
0
 10
0.697483
 20
4.33886
 30
0.0
 40
0
 41
0
  0
VERTEX
  8
0
 10
0.846463
 20
4.49983
 30
0.0
 40
0
 41
0
  0
VERTEX
  8
0
 10
1.00846
 20
4.64768
 30
0.0
 40
0
 41
0
  0
VERTEX
  8
0
 10
1.18267
 20
4.78153
 30
0.0
 40
0
 41
0
  0
VERTEX
  8
0
 10
1.36811
 20
4.90044
 30
0.0
 40
0
 41
0
  0
VERTEX
  8
0
 10
1.56386
 20
5.00353
 30
0.0
 40
0
 41
0
  0
VERTEX
  8
0
 10
1.7691
 20
5.08985
 30
0.0
 40
0
 41
0
  0
VERTEX
  8
0
 10
1.98292
 20
5.15858
 30
0.0
 40
0
 41
0
  0
VERTEX
  8
0
 10
2.20437
 20
5.20876
 30
0.0
 40
0
 41
0
  0
VERTEX
  8
0
 10
2.43257
 20
5.23958
 30
0.0
 40
0
 41
0
  0
VERTEX
  8
0
 10
2.60813
 20
5.25
 30
0.0
 40
0
 41
0
  0
VERTEX
  8
0
 10
2.66667
 20
5.25
 30
0.0
 40
0
 41
0
  0
VERTEX
  8
0
 10
2.73074
 20
5.25
 30
0.0
 40
0
 41
0
  0
VERTEX
  8
0
 10
2.92301
 20
5.23747
 30
0.0
 40
0
 41
0
  0
VERTEX
  8
0
 10
3.17225
 20
5.20057
 30
0.0
 40
0
 41
0
  0
VERTEX
  8
0
 10
3.41314
 20
5.14051
 30
0.0
 40
0
 41
0
  0
VERTEX
  8
0
 10
3.64453
 20
5.05849
 30
0.0
 40
0
 41
0
  0
VERTEX
  8
0
 10
3.86524
 20
4.95574
 30
0.0
 40
0
 41
0
  0
VERTEX
  8
0
 10
4.074
 20
4.83333
 30
0.0
 40
0
 41
0
  0
VERTEX
  8
0
 10
4.26969
 20
4.69254
 30
0.0
 40
0
 41
0
  0
VERTEX
  8
0
 10
4.40771
 20
4.57607
 30
0.0
 40
0
 41
0
  0
VERTEX
  8
0
 10
4.45117
 20
4.5345
 30
0.0
 40
0
 41
0
  0
VERTEX
  8
0
 10
4.82324
 20
4.90657
 30
0.0
 40
0
 41
0
  0
VERTEX
  8
0
 10
4.83703
 20
4.92036
 30
0.0
 40
0
 41
0
  0
VERTEX
  8
0
 10
4.88678
 20
4.95335
 30
0.0
 40
0
 41
0
  0
VERTEX
  8
0
 10
4.95632
 20
4.97672
 30
0.0
 40
0
 41
0
  0
VERTEX
  8
0
 10
5.02746
 20
4.97863
 30
0.0
 40
0
 41
0
  0
VERTEX
  8
0
 10
5.09565
 20
4.96078
 30
0.0
 40
0
 41
0
  0
VERTEX
  8
0
 10
5.15647
 20
4.92518
 30
0.0
 40
0
 41
0
  0
VERTEX
  8
0
 10
5.20546
 20
4.87354
 30
0.0
 40
0
 41
0
  0
VERTEX
  8
0
 10
5.23812
 20
4.80778
 30
0.0
 40
0
 41
0
  0
VERTEX
  8
0
 10
5.25
 20
4.74929
 30
0.0
 40
0
 41
0
  0
VERTEX
  8
0
 10
5.25
 20
4.72976
 30
0.0
 40
0
 41
0
  0
VERTEX
  8
0
 10
5.25
 20
3.33333
 30
0.0
 40
0
 41
0
  0
VERTEX
  8
0
 10
5.25
 20
3.30903
 30
0.0
 40
0
 41
0
  0
VERTEX
  8
0
 10
5.23031
 20
3.23606
 30
0.0
 40
0
 41
0
  0
VERTEX
  8
0
 10
5.17676
 20
3.15657
 30
0.0
 40
0
 41
0
  0
VERTEX
  8
0
 10
5.09728
 20
3.10303
 30
0.0
 40
0
 41
0
  0
VERTEX
  8
0
 10
5.02431
 20
3.08333
 30
0.0
 40
0
 41
0
  0
VERTEX
  8
0
 10
5
 20
3.08333
 30
0.0
 40
0
 41
0
  0
VERTEX
  8
0
 10
3.60357
 20
3.08333
 30
0.0
 40
0
 41
0
  0
VERTEX
  8
0
 10
3.58404
 20
3.08333
 30
0.0
 40
0
 41
0
  0
VERTEX
  8
0
 10
3.52556
 20
3.09521
 30
0.0
 40
0
 41
0
  0
VERTEX
  8
0
 10
3.45979
 20
3.12788
 30
0.0
 40
0
 41
0
  0
VERTEX
  8
0
 10
3.40815
 20
3.17686
 30
0.0
 40
0
 41
0
  0
VERTEX
  8
0
 10
3.37256
 20
3.23768
 30
0.0
 40
0
 41
0
  0
VERTEX
  8
0
 10
3.35471
 20
3.30587
 30
0.0
 40
0
 41
0
  0
VERTEX
  8
0
 10
3.35661
 20
3.37701
 30
0.0
 40
0
 41
0
  0
VERTEX
  8
0
 10
3.37999
 20
3.44656
 30
0.0
 40
0
 41
0
  0
VERTEX
  8
0
 10
3.41297
 20
3.49631
 30
0.0
 40
0
 41
0
  0
VERTEX
  8
0
 10
3.42676
 20
3.5101
 30
0.0
 40
0
 41
0
  0
VERTEX
  8
0
 10
3.86165
 20
3.94499
 30
0.0
 40
0
 41
0
  0
SEQEND
 8
0
  0
POLYLINE
  8
0
 62
     0
 66
     1
 10
0
 20
0
 30
0.0
 70
     1
 40
0
 41
0
  0
VERTEX
  8
0
 10
0.333333
 20
2.25
 30
0.0
 40
0
 41
0
  0
VERTEX
  8
0
 10
1.72976
 20
2.25
 30
0.0
 40
0
 41
0
  0
VERTEX
  8
0
 10
1.74924
 20
2.25
 30
0.0
 40
0
 41
0
  0
VERTEX
  8
0
 10
1.80772
 20
2.23817
 30
0.0
 40
0
 41
0
  0
VERTEX
  8
0
 10
1.87349
 20
2.20551
 30
0.0
 40
0
 41
0
  0
VERTEX
  8
0
 10
1.92512
 20
2.15653
 30
0.0
 40
0
 41
0
  0
VERTEX
  8
0
 10
1.96072
 20
2.09571
 30
0.0
 40
0
 41
0
  0
VERTEX
  8
0
 10
1.97857
 20
2.0275
 30
0.0
 40
0
 41
0
  0
VERTEX
  8
0
 10
1.97667
 20
1.95637
 30
0.0
 40
0
 41
0
  0
VERTEX
  8
0
 10
1.95329
 20
1.88683
 30
0.0
 40
0
 41
0
  0
VERTEX
  8
0
 10
1.92036
 20
1.83703
 30
0.0
 40
0
 41
0
  0
VERTEX
  8
0
 10
1.90657
 20
1.82324
 30
0.0
 40
0
 41
0
  0
VERTEX
  8
0
 10
1.47168
 20
1.38835
 30
0.0
 40
0
 41
0
  0
VERTEX
  8
0
 10
1.53168
 20
1.33214
 30
0.0
 40
0
 41
0
  0
VERTEX
  8
0
 10
1.73296
 20
1.18598
 30
0.0
 40
0
 41
0
  0
VERTEX
  8
0
 10
2.02393
 20
1.03803
 30
0.0
 40
0
 41
0
  0
VERTEX
  8
0
 10
2.33794
 20
0.947319
 30
0.0
 40
0
 41
0
  0
VERTEX
  8
0
 10
2.58572
 20
0.916613
 30
0.0
 40
0
 41
0
  0
VERTEX
  8
0
 10
2.66829
 20
0.916667
 30
0.0
 40
0
 41
0
  0
VERTEX
  8
0
 10
2.7424
 20
0.916721
 30
0.0
 40
0
 41
0
  0
VERTEX
  8
0
 10
2.96479
 20
0.942165
 30
0.0
 40
0
 41
0
  0
VERTEX
  8
0
 10
3.24636
 20
1.01546
 30
0.0
 40
0
 41
0
  0
VERTEX
  8
0
 10
3.50846
 20
1.13265
 30
0.0
 40
0
 41
0
  0
VERTEX
  8
0
 10
3.74636
 20
1.28971
 30
0.0
 40
0
 41
0
  0
VERTEX
  8
0
 10
3.95551
 20
1.48275
 30
0.0
 40
0
 41
0
  0
VERTEX
  8
0
 10
4.13124
 20
1.70774
 30
0.0
 40
0
 41
0
  0
VERTEX
  8
0
 10
4.26893
 20
1.96083
 30
0.0
 40
0
 41
0
  0
VERTEX
  8
0
 10
4.34625
 20
2.16721
 30
0.0
 40
0
 41
0
  0
VERTEX
  8
0
 10
4.36399
 20
2.23801
 30
0.0
 40
0
 41
0
  0
VERTEX
  8
0
 10
4.36649
 20
2.24804
 30
0.0
 40
0
 41
0
  0
VERTEX
  8
0
 10
4.38075
 20
2.27653
 30
0.0
 40
0
 41
0
  0
VERTEX
  8
0
 10
4.40831
 20
2.30664
 30
0.0
 40
0
 41
0
  0
VERTEX
  8
0
 10
4.44401
 20
2.32633
 30
0.0
 40
0
 41
0
  0
VERTEX
  8
0
 10
4.47499
 20
2.33333
 30
0.0
 40
0
 41
0
  0
VERTEX
  8
0
 10
4.48535
 20
2.33333
 30
0.0
 40
0
 41
0
  0
VERTEX
  8
0
 10
5.08225
 20
2.33333
 30
0.0
 40
0
 41
0
  0
VERTEX
  8
0
 10
5.09576
 20
2.33333
 30
0.0
 40
0
 41
0
  0
VERTEX
  8
0
 10
5.13644
 20
2.32107
 30
0.0
 40
0
 41
0
  0
VERTEX
  8
0
 10
5.17844
 20
2.28831
 30
0.0
 40
0
 41
0
  0
VERTEX
  8
0
 10
5.20307
 20
2.24115
 30
0.0
 40
0
 41
0
  0
VERTEX
  8
0
 10
5.20774
 20
2.19894
 30
0.0
 40
0
 41
0
  0
VERTEX
  8
0
 10
5.20524
 20
2.18565
 30
0.0
 40
0
 41
0
  0
VERTEX
  8
0
 10
5.19476
 20
2.12999
 30
0.0
 40
0
 41
0
  0
VERTEX
  8
0
 10
5.15343
 20
1.96485
 30
0.0
 40
0
 41
0
  0
VERTEX
  8
0
 10
5.08322
 20
1.75174
 30
0.0
 40
0
 41
0
  0
VERTEX
  8
0
 10
4.99544
 20
1.54719
 30
0.0
 40
0
 41
0
  0
VERTEX
  8
0
 10
4.891
 20
1.35227
 30
0.0
 40
0
 41
0
  0
VERTEX
  8
0
 10
4.77083
 20
1.16775
 30
0.0
 40
0
 41
0
  0
VERTEX
  8
0
 10
4.63579
 20
0.994521
 30
0.0
 40
0
 41
0
  0
VERTEX
  8
0
 10
4.48682
 20
0.83355
 30
0.0
 40
0
 41
0
  0
VERTEX
  8
0
 10
4.32482
 20
0.68571
 30
0.0
 40
0
 41
0
  0
VERTEX
  8
0
 10
4.15061
 20
0.551867
 30
0.0
 40
0
 41
0
  0
VERTEX
  8
0
 10
3.96517
 20
0.432943
 30
0.0
 40
0
 41
0
  0
VERTEX
  8
0
 10
3.76942
 20
0.329861
 30
0.0
 40
0
 41
0
  0
VERTEX
  8
0
 10
3.56418
 20
0.243544
 30
0.0
 40
0
 41
0
  0
VERTEX
  8
0
 10
3.35038
 20
0.174804
 30
0.0
 40
0
 41
0
  0
VERTEX
  8
0
 10
3.1289
 20
0.12462
 30
0.0
 40
0
 41
0
  0
VERTEX
  8
0
 10
2.90072
 20
0.0938043
 30
0.0
 40
0
 41
0
  0
VERTEX
  8
0
 10
2.72515
 20
0.0833333
 30
0.0
 40
0
 41
0
  0
VERTEX
  8
0
 10
2.66667
 20
0.0833333
 30
0.0
 40
0
 41
0
  0
VERTEX
  8
0
 10
2.60254
 20
0.0833333
 30
0.0
 40
0
 41
0
  0
VERTEX
  8
0
 10
2.41026
 20
0.0959201
 30
0.0
 40
0
 41
0
  0
VERTEX
  8
0
 10
2.16103
 20
0.132813
 30
0.0
 40
0
 41
0
  0
VERTEX
  8
0
 10
1.92014
 20
0.192871
 30
0.0
 40
0
 41
0
  0
VERTEX
  8
0
 10
1.68875
 20
0.274903
 30
0.0
 40
0
 41
0
  0
VERTEX
  8
0
 10
1.46804
 20
0.377658
 30
0.0
 40
0
 41
0
  0
VERTEX
  8
0
 10
1.25928
 20
0.500054
 30
0.0
 40
0
 41
0
  0
VERTEX
  8
0
 10
1.06358
 20
0.640842
 30
0.0
 40
0
 41
0
  0
VERTEX
  8
0
 10
0.925564
 20
0.757324
 30
0.0
 40
0
 41
0
  0
VERTEX
  8
0
 10
0.882161
 20
0.798828
 30
0.0
 40
0
 41
0
  0
VERTEX
  8
0
 10
0.510092
 20
0.426758
 30
0.0
 40
0
 41
0
  0
VERTEX
  8
0
 10
0.496311
 20
0.412978
 30
0.0
 40
0
 41
0
  0
VERTEX
  8
0
 10
0.446506
 20
0.380046
 30
0.0
 40
0
 41
0
  0
VERTEX
  8
0
 10
0.376953
 20
0.356663
 30
0.0
 40
0
 41
0
  0
VERTEX
  8
0
 10
0.305826
 20
0.354764
 30
0.0
 40
0
 41
0
  0
VERTEX
  8
0
 10
0.237631
 20
0.372613
 30
0.0
 40
0
 41
0
  0
VERTEX
  8
0
 10
0.176813
 20
0.408203
 30
0.0
 40
0
 41
0
  0
VERTEX
  8
0
 10
0.127821
 20
0.459853
 30
0.0
 40
0
 41
0
  0
VERTEX
  8
0
 10
0.0951606
 20
0.525608
 30
0.0
 40
0
 41
0
  0
VERTEX
  8
0
 10
0.0833333
 20
0.584093
 30
0.0
 40
0
 41
0
  0
VERTEX
  8
0
 10
0.0833333
 20
0.603569
 30
0.0
 40
0
 41
0
  0
VERTEX
  8
0
 10
0.0833333
 20
2
 30
0.0
 40
0
 41
0
  0
VERTEX
  8
0
 10
0.0833333
 20
2.02436
 30
0.0
 40
0
 41
0
  0
VERTEX
  8
0
 10
0.102973
 20
2.09733
 30
0.0
 40
0
 41
0
  0
VERTEX
  8
0
 10
0.156521
 20
2.17681
 30
0.0
 40
0
 41
0
  0
VERTEX
  8
0
 10
0.236003
 20
2.23036
 30
0.0
 40
0
 41
0
  0
VERTEX
  8
0
 10
0.308974
 20
2.25
 30
0.0
 40
0
 41
0
  0
VERTEX
  8
0
 10
0.333333
 20
2.25
 30
0.0
 40
0
 41
0
  0
SEQEND
 8
0
  0
ENDSEC
  0
EOF
