G04 #@! TF.GenerationSoftware,KiCad,Pcbnew,5.1.5*
G04 #@! TF.CreationDate,2020-04-28T21:46:35+02:00*
G04 #@! TF.ProjectId,backplane,6261636b-706c-4616-9e65-2e6b69636164,rev?*
G04 #@! TF.SameCoordinates,Original*
G04 #@! TF.FileFunction,Copper,L1,Top*
G04 #@! TF.FilePolarity,Positive*
%FSLAX46Y46*%
G04 Gerber Fmt 4.6, Leading zero omitted, Abs format (unit mm)*
G04 Created by KiCad (PCBNEW 5.1.5) date 2020-04-28 21:46:35*
%MOMM*%
%LPD*%
G04 APERTURE LIST*
%ADD10C,0.800000*%
%ADD11C,6.400000*%
%ADD12C,1.208000*%
%ADD13R,1.208000X1.208000*%
%ADD14C,0.100000*%
%ADD15C,0.250000*%
%ADD16C,0.254000*%
G04 APERTURE END LIST*
D10*
X99197056Y-40802944D03*
X97500000Y-40100000D03*
X95802944Y-40802944D03*
X95100000Y-42500000D03*
X95802944Y-44197056D03*
X97500000Y-44900000D03*
X99197056Y-44197056D03*
X99900000Y-42500000D03*
D11*
X97500000Y-42500000D03*
X122500000Y-47500000D03*
D10*
X124900000Y-47500000D03*
X124197056Y-49197056D03*
X122500000Y-49900000D03*
X120802944Y-49197056D03*
X120100000Y-47500000D03*
X120802944Y-45802944D03*
X122500000Y-45100000D03*
X124197056Y-45802944D03*
D12*
X58750000Y-72200000D03*
X56750000Y-71200000D03*
X58750000Y-70200000D03*
X56750000Y-69200000D03*
X58750000Y-68200000D03*
X56750000Y-67200000D03*
X58750000Y-66200000D03*
X56750000Y-65200000D03*
X58750000Y-64200000D03*
X56750000Y-63200000D03*
X58750000Y-62200000D03*
X56750000Y-61200000D03*
X58750000Y-60200000D03*
X56750000Y-59200000D03*
X58750000Y-58200000D03*
X56750000Y-57200000D03*
X58750000Y-56200000D03*
X56750000Y-55200000D03*
X58750000Y-54200000D03*
X58750000Y-50200000D03*
X56750000Y-49200000D03*
X58750000Y-48200000D03*
X56750000Y-47200000D03*
X58750000Y-46200000D03*
X56750000Y-45200000D03*
X58750000Y-44200000D03*
X56750000Y-43200000D03*
X58750000Y-42200000D03*
X61250000Y-72200000D03*
X63250000Y-71200000D03*
X61250000Y-70200000D03*
X63250000Y-69200000D03*
X61250000Y-68200000D03*
X63250000Y-67200000D03*
X61250000Y-66200000D03*
X63250000Y-65200000D03*
X61250000Y-64200000D03*
X63250000Y-63200000D03*
X61250000Y-62200000D03*
X63250000Y-61200000D03*
X61250000Y-60200000D03*
X63250000Y-59200000D03*
X61250000Y-58200000D03*
X63250000Y-57200000D03*
X61250000Y-56200000D03*
X63250000Y-55200000D03*
X61250000Y-50200000D03*
X63250000Y-49200000D03*
X61250000Y-48200000D03*
X63250000Y-47200000D03*
X61250000Y-46200000D03*
X63250000Y-45200000D03*
X61250000Y-44200000D03*
X63250000Y-43200000D03*
X61250000Y-42200000D03*
X63250000Y-41200000D03*
X56750000Y-41200000D03*
X58750000Y-40200000D03*
D13*
X61250000Y-40200000D03*
D12*
X56750000Y-73200000D03*
X56750000Y-53200000D03*
X61250000Y-54200000D03*
X63250000Y-53200000D03*
X63250000Y-73200000D03*
X88250000Y-73200000D03*
X88250000Y-53200000D03*
X86250000Y-54200000D03*
X81750000Y-53200000D03*
X81750000Y-73200000D03*
D13*
X86250000Y-40200000D03*
D12*
X83750000Y-40200000D03*
X81750000Y-41200000D03*
X88250000Y-41200000D03*
X86250000Y-42200000D03*
X88250000Y-43200000D03*
X86250000Y-44200000D03*
X88250000Y-45200000D03*
X86250000Y-46200000D03*
X88250000Y-47200000D03*
X86250000Y-48200000D03*
X88250000Y-49200000D03*
X86250000Y-50200000D03*
X88250000Y-55200000D03*
X86250000Y-56200000D03*
X88250000Y-57200000D03*
X86250000Y-58200000D03*
X88250000Y-59200000D03*
X86250000Y-60200000D03*
X88250000Y-61200000D03*
X86250000Y-62200000D03*
X88250000Y-63200000D03*
X86250000Y-64200000D03*
X88250000Y-65200000D03*
X86250000Y-66200000D03*
X88250000Y-67200000D03*
X86250000Y-68200000D03*
X88250000Y-69200000D03*
X86250000Y-70200000D03*
X88250000Y-71200000D03*
X86250000Y-72200000D03*
X83750000Y-42200000D03*
X81750000Y-43200000D03*
X83750000Y-44200000D03*
X81750000Y-45200000D03*
X83750000Y-46200000D03*
X81750000Y-47200000D03*
X83750000Y-48200000D03*
X81750000Y-49200000D03*
X83750000Y-50200000D03*
X83750000Y-54200000D03*
X81750000Y-55200000D03*
X83750000Y-56200000D03*
X81750000Y-57200000D03*
X83750000Y-58200000D03*
X81750000Y-59200000D03*
X83750000Y-60200000D03*
X81750000Y-61200000D03*
X83750000Y-62200000D03*
X81750000Y-63200000D03*
X83750000Y-64200000D03*
X81750000Y-65200000D03*
X83750000Y-66200000D03*
X81750000Y-67200000D03*
X83750000Y-68200000D03*
X81750000Y-69200000D03*
X83750000Y-70200000D03*
X81750000Y-71200000D03*
X83750000Y-72200000D03*
X108750000Y-72200000D03*
X106750000Y-71200000D03*
X108750000Y-70200000D03*
X106750000Y-69200000D03*
X108750000Y-68200000D03*
X106750000Y-67200000D03*
X108750000Y-66200000D03*
X106750000Y-65200000D03*
X108750000Y-64200000D03*
X106750000Y-63200000D03*
X108750000Y-62200000D03*
X106750000Y-61200000D03*
X108750000Y-60200000D03*
X106750000Y-59200000D03*
X108750000Y-58200000D03*
X106750000Y-57200000D03*
X108750000Y-56200000D03*
X106750000Y-55200000D03*
X108750000Y-54200000D03*
X108750000Y-50200000D03*
X106750000Y-49200000D03*
X108750000Y-48200000D03*
X106750000Y-47200000D03*
X108750000Y-46200000D03*
X106750000Y-45200000D03*
X108750000Y-44200000D03*
X106750000Y-43200000D03*
X108750000Y-42200000D03*
X111250000Y-72200000D03*
X113250000Y-71200000D03*
X111250000Y-70200000D03*
X113250000Y-69200000D03*
X111250000Y-68200000D03*
X113250000Y-67200000D03*
X111250000Y-66200000D03*
X113250000Y-65200000D03*
X111250000Y-64200000D03*
X113250000Y-63200000D03*
X111250000Y-62200000D03*
X113250000Y-61200000D03*
X111250000Y-60200000D03*
X113250000Y-59200000D03*
X111250000Y-58200000D03*
X113250000Y-57200000D03*
X111250000Y-56200000D03*
X113250000Y-55200000D03*
X111250000Y-50200000D03*
X113250000Y-49200000D03*
X111250000Y-48200000D03*
X113250000Y-47200000D03*
X111250000Y-46200000D03*
X113250000Y-45200000D03*
X111250000Y-44200000D03*
X113250000Y-43200000D03*
X111250000Y-42200000D03*
X113250000Y-41200000D03*
X106750000Y-41200000D03*
X108750000Y-40200000D03*
D13*
X111250000Y-40200000D03*
D12*
X106750000Y-73200000D03*
X106750000Y-53200000D03*
X111250000Y-54200000D03*
X113250000Y-53200000D03*
X113250000Y-73200000D03*
X138250000Y-73200000D03*
X138250000Y-53200000D03*
X136250000Y-54200000D03*
X131750000Y-53200000D03*
X131750000Y-73200000D03*
D13*
X136250000Y-40200000D03*
D12*
X133750000Y-40200000D03*
X131750000Y-41200000D03*
X138250000Y-41200000D03*
X136250000Y-42200000D03*
X138250000Y-43200000D03*
X136250000Y-44200000D03*
X138250000Y-45200000D03*
X136250000Y-46200000D03*
X138250000Y-47200000D03*
X136250000Y-48200000D03*
X138250000Y-49200000D03*
X136250000Y-50200000D03*
X138250000Y-55200000D03*
X136250000Y-56200000D03*
X138250000Y-57200000D03*
X136250000Y-58200000D03*
X138250000Y-59200000D03*
X136250000Y-60200000D03*
X138250000Y-61200000D03*
X136250000Y-62200000D03*
X138250000Y-63200000D03*
X136250000Y-64200000D03*
X138250000Y-65200000D03*
X136250000Y-66200000D03*
X138250000Y-67200000D03*
X136250000Y-68200000D03*
X138250000Y-69200000D03*
X136250000Y-70200000D03*
X138250000Y-71200000D03*
X136250000Y-72200000D03*
X133750000Y-42200000D03*
X131750000Y-43200000D03*
X133750000Y-44200000D03*
X131750000Y-45200000D03*
X133750000Y-46200000D03*
X131750000Y-47200000D03*
X133750000Y-48200000D03*
X131750000Y-49200000D03*
X133750000Y-50200000D03*
X133750000Y-54200000D03*
X131750000Y-55200000D03*
X133750000Y-56200000D03*
X131750000Y-57200000D03*
X133750000Y-58200000D03*
X131750000Y-59200000D03*
X133750000Y-60200000D03*
X131750000Y-61200000D03*
X133750000Y-62200000D03*
X131750000Y-63200000D03*
X133750000Y-64200000D03*
X131750000Y-65200000D03*
X133750000Y-66200000D03*
X131750000Y-67200000D03*
X133750000Y-68200000D03*
X131750000Y-69200000D03*
X133750000Y-70200000D03*
X131750000Y-71200000D03*
X133750000Y-72200000D03*
X158750000Y-72200000D03*
X156750000Y-71200000D03*
X158750000Y-70200000D03*
X156750000Y-69200000D03*
X158750000Y-68200000D03*
X156750000Y-67200000D03*
X158750000Y-66200000D03*
X156750000Y-65200000D03*
X158750000Y-64200000D03*
X156750000Y-63200000D03*
X158750000Y-62200000D03*
X156750000Y-61200000D03*
X158750000Y-60200000D03*
X156750000Y-59200000D03*
X158750000Y-58200000D03*
X156750000Y-57200000D03*
X158750000Y-56200000D03*
X156750000Y-55200000D03*
X158750000Y-54200000D03*
X158750000Y-50200000D03*
X156750000Y-49200000D03*
X158750000Y-48200000D03*
X156750000Y-47200000D03*
X158750000Y-46200000D03*
X156750000Y-45200000D03*
X158750000Y-44200000D03*
X156750000Y-43200000D03*
X158750000Y-42200000D03*
X161250000Y-72200000D03*
X163250000Y-71200000D03*
X161250000Y-70200000D03*
X163250000Y-69200000D03*
X161250000Y-68200000D03*
X163250000Y-67200000D03*
X161250000Y-66200000D03*
X163250000Y-65200000D03*
X161250000Y-64200000D03*
X163250000Y-63200000D03*
X161250000Y-62200000D03*
X163250000Y-61200000D03*
X161250000Y-60200000D03*
X163250000Y-59200000D03*
X161250000Y-58200000D03*
X163250000Y-57200000D03*
X161250000Y-56200000D03*
X163250000Y-55200000D03*
X161250000Y-50200000D03*
X163250000Y-49200000D03*
X161250000Y-48200000D03*
X163250000Y-47200000D03*
X161250000Y-46200000D03*
X163250000Y-45200000D03*
X161250000Y-44200000D03*
X163250000Y-43200000D03*
X161250000Y-42200000D03*
X163250000Y-41200000D03*
X156750000Y-41200000D03*
X158750000Y-40200000D03*
D13*
X161250000Y-40200000D03*
D12*
X156750000Y-73200000D03*
X156750000Y-53200000D03*
X161250000Y-54200000D03*
X163250000Y-53200000D03*
X163250000Y-73200000D03*
X188250000Y-73200000D03*
X188250000Y-53200000D03*
X186250000Y-54200000D03*
X181750000Y-53200000D03*
X181750000Y-73200000D03*
D13*
X186250000Y-40200000D03*
D12*
X183750000Y-40200000D03*
X181750000Y-41200000D03*
X188250000Y-41200000D03*
X186250000Y-42200000D03*
X188250000Y-43200000D03*
X186250000Y-44200000D03*
X188250000Y-45200000D03*
X186250000Y-46200000D03*
X188250000Y-47200000D03*
X186250000Y-48200000D03*
X188250000Y-49200000D03*
X186250000Y-50200000D03*
X188250000Y-55200000D03*
X186250000Y-56200000D03*
X188250000Y-57200000D03*
X186250000Y-58200000D03*
X188250000Y-59200000D03*
X186250000Y-60200000D03*
X188250000Y-61200000D03*
X186250000Y-62200000D03*
X188250000Y-63200000D03*
X186250000Y-64200000D03*
X188250000Y-65200000D03*
X186250000Y-66200000D03*
X188250000Y-67200000D03*
X186250000Y-68200000D03*
X188250000Y-69200000D03*
X186250000Y-70200000D03*
X188250000Y-71200000D03*
X186250000Y-72200000D03*
X183750000Y-42200000D03*
X181750000Y-43200000D03*
X183750000Y-44200000D03*
X181750000Y-45200000D03*
X183750000Y-46200000D03*
X181750000Y-47200000D03*
X183750000Y-48200000D03*
X181750000Y-49200000D03*
X183750000Y-50200000D03*
X183750000Y-54200000D03*
X181750000Y-55200000D03*
X183750000Y-56200000D03*
X181750000Y-57200000D03*
X183750000Y-58200000D03*
X181750000Y-59200000D03*
X183750000Y-60200000D03*
X181750000Y-61200000D03*
X183750000Y-62200000D03*
X181750000Y-63200000D03*
X183750000Y-64200000D03*
X181750000Y-65200000D03*
X183750000Y-66200000D03*
X181750000Y-67200000D03*
X183750000Y-68200000D03*
X181750000Y-69200000D03*
X183750000Y-70200000D03*
X181750000Y-71200000D03*
X183750000Y-72200000D03*
X208750000Y-72200000D03*
X206750000Y-71200000D03*
X208750000Y-70200000D03*
X206750000Y-69200000D03*
X208750000Y-68200000D03*
X206750000Y-67200000D03*
X208750000Y-66200000D03*
X206750000Y-65200000D03*
X208750000Y-64200000D03*
X206750000Y-63200000D03*
X208750000Y-62200000D03*
X206750000Y-61200000D03*
X208750000Y-60200000D03*
X206750000Y-59200000D03*
X208750000Y-58200000D03*
X206750000Y-57200000D03*
X208750000Y-56200000D03*
X206750000Y-55200000D03*
X208750000Y-54200000D03*
X208750000Y-50200000D03*
X206750000Y-49200000D03*
X208750000Y-48200000D03*
X206750000Y-47200000D03*
X208750000Y-46200000D03*
X206750000Y-45200000D03*
X208750000Y-44200000D03*
X206750000Y-43200000D03*
X208750000Y-42200000D03*
X211250000Y-72200000D03*
X213250000Y-71200000D03*
X211250000Y-70200000D03*
X213250000Y-69200000D03*
X211250000Y-68200000D03*
X213250000Y-67200000D03*
X211250000Y-66200000D03*
X213250000Y-65200000D03*
X211250000Y-64200000D03*
X213250000Y-63200000D03*
X211250000Y-62200000D03*
X213250000Y-61200000D03*
X211250000Y-60200000D03*
X213250000Y-59200000D03*
X211250000Y-58200000D03*
X213250000Y-57200000D03*
X211250000Y-56200000D03*
X213250000Y-55200000D03*
X211250000Y-50200000D03*
X213250000Y-49200000D03*
X211250000Y-48200000D03*
X213250000Y-47200000D03*
X211250000Y-46200000D03*
X213250000Y-45200000D03*
X211250000Y-44200000D03*
X213250000Y-43200000D03*
X211250000Y-42200000D03*
X213250000Y-41200000D03*
X206750000Y-41200000D03*
X208750000Y-40200000D03*
D13*
X211250000Y-40200000D03*
D12*
X206750000Y-73200000D03*
X206750000Y-53200000D03*
X211250000Y-54200000D03*
X213250000Y-53200000D03*
X213250000Y-73200000D03*
X238250000Y-73200000D03*
X238250000Y-53200000D03*
X236250000Y-54200000D03*
X231750000Y-53200000D03*
X231750000Y-73200000D03*
D13*
X236250000Y-40200000D03*
D12*
X233750000Y-40200000D03*
X231750000Y-41200000D03*
X238250000Y-41200000D03*
X236250000Y-42200000D03*
X238250000Y-43200000D03*
X236250000Y-44200000D03*
X238250000Y-45200000D03*
X236250000Y-46200000D03*
X238250000Y-47200000D03*
X236250000Y-48200000D03*
X238250000Y-49200000D03*
X236250000Y-50200000D03*
X238250000Y-55200000D03*
X236250000Y-56200000D03*
X238250000Y-57200000D03*
X236250000Y-58200000D03*
X238250000Y-59200000D03*
X236250000Y-60200000D03*
X238250000Y-61200000D03*
X236250000Y-62200000D03*
X238250000Y-63200000D03*
X236250000Y-64200000D03*
X238250000Y-65200000D03*
X236250000Y-66200000D03*
X238250000Y-67200000D03*
X236250000Y-68200000D03*
X238250000Y-69200000D03*
X236250000Y-70200000D03*
X238250000Y-71200000D03*
X236250000Y-72200000D03*
X233750000Y-42200000D03*
X231750000Y-43200000D03*
X233750000Y-44200000D03*
X231750000Y-45200000D03*
X233750000Y-46200000D03*
X231750000Y-47200000D03*
X233750000Y-48200000D03*
X231750000Y-49200000D03*
X233750000Y-50200000D03*
X233750000Y-54200000D03*
X231750000Y-55200000D03*
X233750000Y-56200000D03*
X231750000Y-57200000D03*
X233750000Y-58200000D03*
X231750000Y-59200000D03*
X233750000Y-60200000D03*
X231750000Y-61200000D03*
X233750000Y-62200000D03*
X231750000Y-63200000D03*
X233750000Y-64200000D03*
X231750000Y-65200000D03*
X233750000Y-66200000D03*
X231750000Y-67200000D03*
X233750000Y-68200000D03*
X231750000Y-69200000D03*
X233750000Y-70200000D03*
X231750000Y-71200000D03*
X233750000Y-72200000D03*
G04 #@! TA.AperFunction,SMDPad,CuDef*
D14*
G36*
X54125691Y-46020053D02*
G01*
X54146926Y-46023203D01*
X54167750Y-46028419D01*
X54187962Y-46035651D01*
X54207368Y-46044830D01*
X54225781Y-46055866D01*
X54243024Y-46068654D01*
X54258930Y-46083070D01*
X54273346Y-46098976D01*
X54286134Y-46116219D01*
X54297170Y-46134632D01*
X54306349Y-46154038D01*
X54313581Y-46174250D01*
X54318797Y-46195074D01*
X54321947Y-46216309D01*
X54323000Y-46237750D01*
X54323000Y-46675250D01*
X54321947Y-46696691D01*
X54318797Y-46717926D01*
X54313581Y-46738750D01*
X54306349Y-46758962D01*
X54297170Y-46778368D01*
X54286134Y-46796781D01*
X54273346Y-46814024D01*
X54258930Y-46829930D01*
X54243024Y-46844346D01*
X54225781Y-46857134D01*
X54207368Y-46868170D01*
X54187962Y-46877349D01*
X54167750Y-46884581D01*
X54146926Y-46889797D01*
X54125691Y-46892947D01*
X54104250Y-46894000D01*
X53591750Y-46894000D01*
X53570309Y-46892947D01*
X53549074Y-46889797D01*
X53528250Y-46884581D01*
X53508038Y-46877349D01*
X53488632Y-46868170D01*
X53470219Y-46857134D01*
X53452976Y-46844346D01*
X53437070Y-46829930D01*
X53422654Y-46814024D01*
X53409866Y-46796781D01*
X53398830Y-46778368D01*
X53389651Y-46758962D01*
X53382419Y-46738750D01*
X53377203Y-46717926D01*
X53374053Y-46696691D01*
X53373000Y-46675250D01*
X53373000Y-46237750D01*
X53374053Y-46216309D01*
X53377203Y-46195074D01*
X53382419Y-46174250D01*
X53389651Y-46154038D01*
X53398830Y-46134632D01*
X53409866Y-46116219D01*
X53422654Y-46098976D01*
X53437070Y-46083070D01*
X53452976Y-46068654D01*
X53470219Y-46055866D01*
X53488632Y-46044830D01*
X53508038Y-46035651D01*
X53528250Y-46028419D01*
X53549074Y-46023203D01*
X53570309Y-46020053D01*
X53591750Y-46019000D01*
X54104250Y-46019000D01*
X54125691Y-46020053D01*
G37*
G04 #@! TD.AperFunction*
G04 #@! TA.AperFunction,SMDPad,CuDef*
G36*
X54125691Y-47595053D02*
G01*
X54146926Y-47598203D01*
X54167750Y-47603419D01*
X54187962Y-47610651D01*
X54207368Y-47619830D01*
X54225781Y-47630866D01*
X54243024Y-47643654D01*
X54258930Y-47658070D01*
X54273346Y-47673976D01*
X54286134Y-47691219D01*
X54297170Y-47709632D01*
X54306349Y-47729038D01*
X54313581Y-47749250D01*
X54318797Y-47770074D01*
X54321947Y-47791309D01*
X54323000Y-47812750D01*
X54323000Y-48250250D01*
X54321947Y-48271691D01*
X54318797Y-48292926D01*
X54313581Y-48313750D01*
X54306349Y-48333962D01*
X54297170Y-48353368D01*
X54286134Y-48371781D01*
X54273346Y-48389024D01*
X54258930Y-48404930D01*
X54243024Y-48419346D01*
X54225781Y-48432134D01*
X54207368Y-48443170D01*
X54187962Y-48452349D01*
X54167750Y-48459581D01*
X54146926Y-48464797D01*
X54125691Y-48467947D01*
X54104250Y-48469000D01*
X53591750Y-48469000D01*
X53570309Y-48467947D01*
X53549074Y-48464797D01*
X53528250Y-48459581D01*
X53508038Y-48452349D01*
X53488632Y-48443170D01*
X53470219Y-48432134D01*
X53452976Y-48419346D01*
X53437070Y-48404930D01*
X53422654Y-48389024D01*
X53409866Y-48371781D01*
X53398830Y-48353368D01*
X53389651Y-48333962D01*
X53382419Y-48313750D01*
X53377203Y-48292926D01*
X53374053Y-48271691D01*
X53373000Y-48250250D01*
X53373000Y-47812750D01*
X53374053Y-47791309D01*
X53377203Y-47770074D01*
X53382419Y-47749250D01*
X53389651Y-47729038D01*
X53398830Y-47709632D01*
X53409866Y-47691219D01*
X53422654Y-47673976D01*
X53437070Y-47658070D01*
X53452976Y-47643654D01*
X53470219Y-47630866D01*
X53488632Y-47619830D01*
X53508038Y-47610651D01*
X53528250Y-47603419D01*
X53549074Y-47598203D01*
X53570309Y-47595053D01*
X53591750Y-47594000D01*
X54104250Y-47594000D01*
X54125691Y-47595053D01*
G37*
G04 #@! TD.AperFunction*
G04 #@! TA.AperFunction,SMDPad,CuDef*
G36*
X54125691Y-52116053D02*
G01*
X54146926Y-52119203D01*
X54167750Y-52124419D01*
X54187962Y-52131651D01*
X54207368Y-52140830D01*
X54225781Y-52151866D01*
X54243024Y-52164654D01*
X54258930Y-52179070D01*
X54273346Y-52194976D01*
X54286134Y-52212219D01*
X54297170Y-52230632D01*
X54306349Y-52250038D01*
X54313581Y-52270250D01*
X54318797Y-52291074D01*
X54321947Y-52312309D01*
X54323000Y-52333750D01*
X54323000Y-52771250D01*
X54321947Y-52792691D01*
X54318797Y-52813926D01*
X54313581Y-52834750D01*
X54306349Y-52854962D01*
X54297170Y-52874368D01*
X54286134Y-52892781D01*
X54273346Y-52910024D01*
X54258930Y-52925930D01*
X54243024Y-52940346D01*
X54225781Y-52953134D01*
X54207368Y-52964170D01*
X54187962Y-52973349D01*
X54167750Y-52980581D01*
X54146926Y-52985797D01*
X54125691Y-52988947D01*
X54104250Y-52990000D01*
X53591750Y-52990000D01*
X53570309Y-52988947D01*
X53549074Y-52985797D01*
X53528250Y-52980581D01*
X53508038Y-52973349D01*
X53488632Y-52964170D01*
X53470219Y-52953134D01*
X53452976Y-52940346D01*
X53437070Y-52925930D01*
X53422654Y-52910024D01*
X53409866Y-52892781D01*
X53398830Y-52874368D01*
X53389651Y-52854962D01*
X53382419Y-52834750D01*
X53377203Y-52813926D01*
X53374053Y-52792691D01*
X53373000Y-52771250D01*
X53373000Y-52333750D01*
X53374053Y-52312309D01*
X53377203Y-52291074D01*
X53382419Y-52270250D01*
X53389651Y-52250038D01*
X53398830Y-52230632D01*
X53409866Y-52212219D01*
X53422654Y-52194976D01*
X53437070Y-52179070D01*
X53452976Y-52164654D01*
X53470219Y-52151866D01*
X53488632Y-52140830D01*
X53508038Y-52131651D01*
X53528250Y-52124419D01*
X53549074Y-52119203D01*
X53570309Y-52116053D01*
X53591750Y-52115000D01*
X54104250Y-52115000D01*
X54125691Y-52116053D01*
G37*
G04 #@! TD.AperFunction*
G04 #@! TA.AperFunction,SMDPad,CuDef*
G36*
X54125691Y-53691053D02*
G01*
X54146926Y-53694203D01*
X54167750Y-53699419D01*
X54187962Y-53706651D01*
X54207368Y-53715830D01*
X54225781Y-53726866D01*
X54243024Y-53739654D01*
X54258930Y-53754070D01*
X54273346Y-53769976D01*
X54286134Y-53787219D01*
X54297170Y-53805632D01*
X54306349Y-53825038D01*
X54313581Y-53845250D01*
X54318797Y-53866074D01*
X54321947Y-53887309D01*
X54323000Y-53908750D01*
X54323000Y-54346250D01*
X54321947Y-54367691D01*
X54318797Y-54388926D01*
X54313581Y-54409750D01*
X54306349Y-54429962D01*
X54297170Y-54449368D01*
X54286134Y-54467781D01*
X54273346Y-54485024D01*
X54258930Y-54500930D01*
X54243024Y-54515346D01*
X54225781Y-54528134D01*
X54207368Y-54539170D01*
X54187962Y-54548349D01*
X54167750Y-54555581D01*
X54146926Y-54560797D01*
X54125691Y-54563947D01*
X54104250Y-54565000D01*
X53591750Y-54565000D01*
X53570309Y-54563947D01*
X53549074Y-54560797D01*
X53528250Y-54555581D01*
X53508038Y-54548349D01*
X53488632Y-54539170D01*
X53470219Y-54528134D01*
X53452976Y-54515346D01*
X53437070Y-54500930D01*
X53422654Y-54485024D01*
X53409866Y-54467781D01*
X53398830Y-54449368D01*
X53389651Y-54429962D01*
X53382419Y-54409750D01*
X53377203Y-54388926D01*
X53374053Y-54367691D01*
X53373000Y-54346250D01*
X53373000Y-53908750D01*
X53374053Y-53887309D01*
X53377203Y-53866074D01*
X53382419Y-53845250D01*
X53389651Y-53825038D01*
X53398830Y-53805632D01*
X53409866Y-53787219D01*
X53422654Y-53769976D01*
X53437070Y-53754070D01*
X53452976Y-53739654D01*
X53470219Y-53726866D01*
X53488632Y-53715830D01*
X53508038Y-53706651D01*
X53528250Y-53699419D01*
X53549074Y-53694203D01*
X53570309Y-53691053D01*
X53591750Y-53690000D01*
X54104250Y-53690000D01*
X54125691Y-53691053D01*
G37*
G04 #@! TD.AperFunction*
G04 #@! TA.AperFunction,SMDPad,CuDef*
G36*
X54125691Y-50643053D02*
G01*
X54146926Y-50646203D01*
X54167750Y-50651419D01*
X54187962Y-50658651D01*
X54207368Y-50667830D01*
X54225781Y-50678866D01*
X54243024Y-50691654D01*
X54258930Y-50706070D01*
X54273346Y-50721976D01*
X54286134Y-50739219D01*
X54297170Y-50757632D01*
X54306349Y-50777038D01*
X54313581Y-50797250D01*
X54318797Y-50818074D01*
X54321947Y-50839309D01*
X54323000Y-50860750D01*
X54323000Y-51298250D01*
X54321947Y-51319691D01*
X54318797Y-51340926D01*
X54313581Y-51361750D01*
X54306349Y-51381962D01*
X54297170Y-51401368D01*
X54286134Y-51419781D01*
X54273346Y-51437024D01*
X54258930Y-51452930D01*
X54243024Y-51467346D01*
X54225781Y-51480134D01*
X54207368Y-51491170D01*
X54187962Y-51500349D01*
X54167750Y-51507581D01*
X54146926Y-51512797D01*
X54125691Y-51515947D01*
X54104250Y-51517000D01*
X53591750Y-51517000D01*
X53570309Y-51515947D01*
X53549074Y-51512797D01*
X53528250Y-51507581D01*
X53508038Y-51500349D01*
X53488632Y-51491170D01*
X53470219Y-51480134D01*
X53452976Y-51467346D01*
X53437070Y-51452930D01*
X53422654Y-51437024D01*
X53409866Y-51419781D01*
X53398830Y-51401368D01*
X53389651Y-51381962D01*
X53382419Y-51361750D01*
X53377203Y-51340926D01*
X53374053Y-51319691D01*
X53373000Y-51298250D01*
X53373000Y-50860750D01*
X53374053Y-50839309D01*
X53377203Y-50818074D01*
X53382419Y-50797250D01*
X53389651Y-50777038D01*
X53398830Y-50757632D01*
X53409866Y-50739219D01*
X53422654Y-50721976D01*
X53437070Y-50706070D01*
X53452976Y-50691654D01*
X53470219Y-50678866D01*
X53488632Y-50667830D01*
X53508038Y-50658651D01*
X53528250Y-50651419D01*
X53549074Y-50646203D01*
X53570309Y-50643053D01*
X53591750Y-50642000D01*
X54104250Y-50642000D01*
X54125691Y-50643053D01*
G37*
G04 #@! TD.AperFunction*
G04 #@! TA.AperFunction,SMDPad,CuDef*
G36*
X54125691Y-49068053D02*
G01*
X54146926Y-49071203D01*
X54167750Y-49076419D01*
X54187962Y-49083651D01*
X54207368Y-49092830D01*
X54225781Y-49103866D01*
X54243024Y-49116654D01*
X54258930Y-49131070D01*
X54273346Y-49146976D01*
X54286134Y-49164219D01*
X54297170Y-49182632D01*
X54306349Y-49202038D01*
X54313581Y-49222250D01*
X54318797Y-49243074D01*
X54321947Y-49264309D01*
X54323000Y-49285750D01*
X54323000Y-49723250D01*
X54321947Y-49744691D01*
X54318797Y-49765926D01*
X54313581Y-49786750D01*
X54306349Y-49806962D01*
X54297170Y-49826368D01*
X54286134Y-49844781D01*
X54273346Y-49862024D01*
X54258930Y-49877930D01*
X54243024Y-49892346D01*
X54225781Y-49905134D01*
X54207368Y-49916170D01*
X54187962Y-49925349D01*
X54167750Y-49932581D01*
X54146926Y-49937797D01*
X54125691Y-49940947D01*
X54104250Y-49942000D01*
X53591750Y-49942000D01*
X53570309Y-49940947D01*
X53549074Y-49937797D01*
X53528250Y-49932581D01*
X53508038Y-49925349D01*
X53488632Y-49916170D01*
X53470219Y-49905134D01*
X53452976Y-49892346D01*
X53437070Y-49877930D01*
X53422654Y-49862024D01*
X53409866Y-49844781D01*
X53398830Y-49826368D01*
X53389651Y-49806962D01*
X53382419Y-49786750D01*
X53377203Y-49765926D01*
X53374053Y-49744691D01*
X53373000Y-49723250D01*
X53373000Y-49285750D01*
X53374053Y-49264309D01*
X53377203Y-49243074D01*
X53382419Y-49222250D01*
X53389651Y-49202038D01*
X53398830Y-49182632D01*
X53409866Y-49164219D01*
X53422654Y-49146976D01*
X53437070Y-49131070D01*
X53452976Y-49116654D01*
X53470219Y-49103866D01*
X53488632Y-49092830D01*
X53508038Y-49083651D01*
X53528250Y-49076419D01*
X53549074Y-49071203D01*
X53570309Y-49068053D01*
X53591750Y-49067000D01*
X54104250Y-49067000D01*
X54125691Y-49068053D01*
G37*
G04 #@! TD.AperFunction*
G04 #@! TA.AperFunction,SMDPad,CuDef*
G36*
X228877691Y-53691053D02*
G01*
X228898926Y-53694203D01*
X228919750Y-53699419D01*
X228939962Y-53706651D01*
X228959368Y-53715830D01*
X228977781Y-53726866D01*
X228995024Y-53739654D01*
X229010930Y-53754070D01*
X229025346Y-53769976D01*
X229038134Y-53787219D01*
X229049170Y-53805632D01*
X229058349Y-53825038D01*
X229065581Y-53845250D01*
X229070797Y-53866074D01*
X229073947Y-53887309D01*
X229075000Y-53908750D01*
X229075000Y-54346250D01*
X229073947Y-54367691D01*
X229070797Y-54388926D01*
X229065581Y-54409750D01*
X229058349Y-54429962D01*
X229049170Y-54449368D01*
X229038134Y-54467781D01*
X229025346Y-54485024D01*
X229010930Y-54500930D01*
X228995024Y-54515346D01*
X228977781Y-54528134D01*
X228959368Y-54539170D01*
X228939962Y-54548349D01*
X228919750Y-54555581D01*
X228898926Y-54560797D01*
X228877691Y-54563947D01*
X228856250Y-54565000D01*
X228343750Y-54565000D01*
X228322309Y-54563947D01*
X228301074Y-54560797D01*
X228280250Y-54555581D01*
X228260038Y-54548349D01*
X228240632Y-54539170D01*
X228222219Y-54528134D01*
X228204976Y-54515346D01*
X228189070Y-54500930D01*
X228174654Y-54485024D01*
X228161866Y-54467781D01*
X228150830Y-54449368D01*
X228141651Y-54429962D01*
X228134419Y-54409750D01*
X228129203Y-54388926D01*
X228126053Y-54367691D01*
X228125000Y-54346250D01*
X228125000Y-53908750D01*
X228126053Y-53887309D01*
X228129203Y-53866074D01*
X228134419Y-53845250D01*
X228141651Y-53825038D01*
X228150830Y-53805632D01*
X228161866Y-53787219D01*
X228174654Y-53769976D01*
X228189070Y-53754070D01*
X228204976Y-53739654D01*
X228222219Y-53726866D01*
X228240632Y-53715830D01*
X228260038Y-53706651D01*
X228280250Y-53699419D01*
X228301074Y-53694203D01*
X228322309Y-53691053D01*
X228343750Y-53690000D01*
X228856250Y-53690000D01*
X228877691Y-53691053D01*
G37*
G04 #@! TD.AperFunction*
G04 #@! TA.AperFunction,SMDPad,CuDef*
G36*
X228877691Y-52116053D02*
G01*
X228898926Y-52119203D01*
X228919750Y-52124419D01*
X228939962Y-52131651D01*
X228959368Y-52140830D01*
X228977781Y-52151866D01*
X228995024Y-52164654D01*
X229010930Y-52179070D01*
X229025346Y-52194976D01*
X229038134Y-52212219D01*
X229049170Y-52230632D01*
X229058349Y-52250038D01*
X229065581Y-52270250D01*
X229070797Y-52291074D01*
X229073947Y-52312309D01*
X229075000Y-52333750D01*
X229075000Y-52771250D01*
X229073947Y-52792691D01*
X229070797Y-52813926D01*
X229065581Y-52834750D01*
X229058349Y-52854962D01*
X229049170Y-52874368D01*
X229038134Y-52892781D01*
X229025346Y-52910024D01*
X229010930Y-52925930D01*
X228995024Y-52940346D01*
X228977781Y-52953134D01*
X228959368Y-52964170D01*
X228939962Y-52973349D01*
X228919750Y-52980581D01*
X228898926Y-52985797D01*
X228877691Y-52988947D01*
X228856250Y-52990000D01*
X228343750Y-52990000D01*
X228322309Y-52988947D01*
X228301074Y-52985797D01*
X228280250Y-52980581D01*
X228260038Y-52973349D01*
X228240632Y-52964170D01*
X228222219Y-52953134D01*
X228204976Y-52940346D01*
X228189070Y-52925930D01*
X228174654Y-52910024D01*
X228161866Y-52892781D01*
X228150830Y-52874368D01*
X228141651Y-52854962D01*
X228134419Y-52834750D01*
X228129203Y-52813926D01*
X228126053Y-52792691D01*
X228125000Y-52771250D01*
X228125000Y-52333750D01*
X228126053Y-52312309D01*
X228129203Y-52291074D01*
X228134419Y-52270250D01*
X228141651Y-52250038D01*
X228150830Y-52230632D01*
X228161866Y-52212219D01*
X228174654Y-52194976D01*
X228189070Y-52179070D01*
X228204976Y-52164654D01*
X228222219Y-52151866D01*
X228240632Y-52140830D01*
X228260038Y-52131651D01*
X228280250Y-52124419D01*
X228301074Y-52119203D01*
X228322309Y-52116053D01*
X228343750Y-52115000D01*
X228856250Y-52115000D01*
X228877691Y-52116053D01*
G37*
G04 #@! TD.AperFunction*
D15*
X53848000Y-46102000D02*
X53848000Y-46456500D01*
X56750000Y-43200000D02*
X53848000Y-46102000D01*
X56445500Y-49504500D02*
X56750000Y-49200000D01*
X53848000Y-49504500D02*
X56445500Y-49504500D01*
X82895816Y-54200000D02*
X83750000Y-54200000D01*
X62640000Y-54200000D02*
X82895816Y-54200000D01*
X59679001Y-55129001D02*
X61710999Y-55129001D01*
X61710999Y-55129001D02*
X62640000Y-54200000D01*
X58750000Y-54200000D02*
X59679001Y-55129001D01*
X107895816Y-54200000D02*
X108750000Y-54200000D01*
X86695921Y-55129001D02*
X87624922Y-54200000D01*
X84679001Y-55129001D02*
X86695921Y-55129001D01*
X87624922Y-54200000D02*
X107895816Y-54200000D01*
X83750000Y-54200000D02*
X84679001Y-55129001D01*
X112932000Y-54200000D02*
X132895816Y-54200000D01*
X109679001Y-55129001D02*
X112002999Y-55129001D01*
X132895816Y-54200000D02*
X133750000Y-54200000D01*
X112002999Y-55129001D02*
X112932000Y-54200000D01*
X108750000Y-54200000D02*
X109679001Y-55129001D01*
X157895816Y-54200000D02*
X158750000Y-54200000D01*
X137875078Y-54200000D02*
X157895816Y-54200000D01*
X136946077Y-55129001D02*
X137875078Y-54200000D01*
X134679001Y-55129001D02*
X136946077Y-55129001D01*
X133750000Y-54200000D02*
X134679001Y-55129001D01*
X162875078Y-54200000D02*
X182895816Y-54200000D01*
X182895816Y-54200000D02*
X183750000Y-54200000D01*
X159679001Y-55129001D02*
X161946077Y-55129001D01*
X161946077Y-55129001D02*
X162875078Y-54200000D01*
X158750000Y-54200000D02*
X159679001Y-55129001D01*
X207895816Y-54200000D02*
X208750000Y-54200000D01*
X187735000Y-54200000D02*
X207895816Y-54200000D01*
X186805999Y-55129001D02*
X187735000Y-54200000D01*
X185804079Y-55129001D02*
X186805999Y-55129001D01*
X184875078Y-54200000D02*
X185804079Y-55129001D01*
X183750000Y-54200000D02*
X184875078Y-54200000D01*
X211695921Y-55129001D02*
X212553923Y-54270999D01*
X210804079Y-55129001D02*
X211695921Y-55129001D01*
X227981501Y-54270999D02*
X228125000Y-54127500D01*
X212553923Y-54270999D02*
X227981501Y-54270999D01*
X209875078Y-54200000D02*
X210804079Y-55129001D01*
X228125000Y-54127500D02*
X228600000Y-54127500D01*
X208750000Y-54200000D02*
X209875078Y-54200000D01*
X232895816Y-54200000D02*
X233750000Y-54200000D01*
X229147500Y-54200000D02*
X232895816Y-54200000D01*
X229075000Y-54127500D02*
X229147500Y-54200000D01*
X228600000Y-54127500D02*
X229075000Y-54127500D01*
X53920500Y-54200000D02*
X53848000Y-54127500D01*
X58750000Y-54200000D02*
X53920500Y-54200000D01*
X53047990Y-53802490D02*
X53373000Y-54127500D01*
X53047990Y-48356510D02*
X53047990Y-53802490D01*
X53373000Y-54127500D02*
X53848000Y-54127500D01*
X53373000Y-48031500D02*
X53047990Y-48356510D01*
X53848000Y-48031500D02*
X53373000Y-48031500D01*
X81146001Y-52596001D02*
X81750000Y-53200000D01*
X80820999Y-52270999D02*
X81146001Y-52596001D01*
X60725077Y-53350001D02*
X61804079Y-52270999D01*
X59279999Y-53350001D02*
X60725077Y-53350001D01*
X59129998Y-53200000D02*
X59279999Y-53350001D01*
X61804079Y-52270999D02*
X80820999Y-52270999D01*
X56750000Y-53200000D02*
X59129998Y-53200000D01*
X106146001Y-52596001D02*
X106750000Y-53200000D01*
X105820999Y-52270999D02*
X106146001Y-52596001D01*
X85725077Y-53350001D02*
X86804079Y-52270999D01*
X86804079Y-52270999D02*
X105820999Y-52270999D01*
X84129998Y-53200000D02*
X84279999Y-53350001D01*
X84279999Y-53350001D02*
X85725077Y-53350001D01*
X81750000Y-53200000D02*
X84129998Y-53200000D01*
X131146001Y-52596001D02*
X131750000Y-53200000D01*
X111804079Y-52270999D02*
X130820999Y-52270999D01*
X109279999Y-53350001D02*
X110725077Y-53350001D01*
X130820999Y-52270999D02*
X131146001Y-52596001D01*
X109129998Y-53200000D02*
X109279999Y-53350001D01*
X110725077Y-53350001D02*
X111804079Y-52270999D01*
X106750000Y-53200000D02*
X109129998Y-53200000D01*
X155820999Y-52270999D02*
X156146001Y-52596001D01*
X136799003Y-52270999D02*
X155820999Y-52270999D01*
X135720001Y-53350001D02*
X136799003Y-52270999D01*
X134279999Y-53350001D02*
X135720001Y-53350001D01*
X134129998Y-53200000D02*
X134279999Y-53350001D01*
X156146001Y-52596001D02*
X156750000Y-53200000D01*
X131750000Y-53200000D02*
X134129998Y-53200000D01*
X180820999Y-52270999D02*
X181146001Y-52596001D01*
X161804079Y-52270999D02*
X180820999Y-52270999D01*
X160725077Y-53350001D02*
X161804079Y-52270999D01*
X181146001Y-52596001D02*
X181750000Y-53200000D01*
X159279999Y-53350001D02*
X160725077Y-53350001D01*
X159129998Y-53200000D02*
X159279999Y-53350001D01*
X156750000Y-53200000D02*
X159129998Y-53200000D01*
X206146001Y-52596001D02*
X206750000Y-53200000D01*
X185725077Y-53350001D02*
X186804079Y-52270999D01*
X205820999Y-52270999D02*
X206146001Y-52596001D01*
X186804079Y-52270999D02*
X205820999Y-52270999D01*
X184279999Y-53350001D02*
X185725077Y-53350001D01*
X184129998Y-53200000D02*
X184279999Y-53350001D01*
X181750000Y-53200000D02*
X184129998Y-53200000D01*
X227843499Y-52270999D02*
X228125000Y-52552500D01*
X211804079Y-52270999D02*
X227843499Y-52270999D01*
X210725077Y-53350001D02*
X211804079Y-52270999D01*
X209274923Y-53350001D02*
X210725077Y-53350001D01*
X228125000Y-52552500D02*
X228600000Y-52552500D01*
X209124922Y-53200000D02*
X209274923Y-53350001D01*
X206750000Y-53200000D02*
X209124922Y-53200000D01*
X231102500Y-52552500D02*
X231750000Y-53200000D01*
X228600000Y-52552500D02*
X231102500Y-52552500D01*
X56102500Y-52552500D02*
X56750000Y-53200000D01*
X53848000Y-52552500D02*
X56102500Y-52552500D01*
X53848000Y-51079500D02*
X53848000Y-52552500D01*
D16*
G36*
X57960184Y-45162394D02*
G01*
X58163113Y-45297988D01*
X58388597Y-45391386D01*
X58627969Y-45439000D01*
X58872031Y-45439000D01*
X59111403Y-45391386D01*
X59336887Y-45297988D01*
X59539816Y-45162394D01*
X59575210Y-45127000D01*
X60424790Y-45127000D01*
X60460184Y-45162394D01*
X60663113Y-45297988D01*
X60888597Y-45391386D01*
X61127969Y-45439000D01*
X61372031Y-45439000D01*
X61611403Y-45391386D01*
X61836887Y-45297988D01*
X62039816Y-45162394D01*
X62075210Y-45127000D01*
X82924790Y-45127000D01*
X82960184Y-45162394D01*
X83163113Y-45297988D01*
X83388597Y-45391386D01*
X83627969Y-45439000D01*
X83872031Y-45439000D01*
X84111403Y-45391386D01*
X84336887Y-45297988D01*
X84539816Y-45162394D01*
X84575210Y-45127000D01*
X85424790Y-45127000D01*
X85460184Y-45162394D01*
X85663113Y-45297988D01*
X85888597Y-45391386D01*
X86127969Y-45439000D01*
X86372031Y-45439000D01*
X86611403Y-45391386D01*
X86836887Y-45297988D01*
X87039816Y-45162394D01*
X87075210Y-45127000D01*
X94703491Y-45127000D01*
X95055330Y-45478839D01*
X95683446Y-45898533D01*
X96381372Y-46187623D01*
X97122285Y-46335000D01*
X97877715Y-46335000D01*
X98618628Y-46187623D01*
X99316554Y-45898533D01*
X99944670Y-45478839D01*
X100296509Y-45127000D01*
X107924790Y-45127000D01*
X107960184Y-45162394D01*
X108163113Y-45297988D01*
X108388597Y-45391386D01*
X108627969Y-45439000D01*
X108872031Y-45439000D01*
X109111403Y-45391386D01*
X109336887Y-45297988D01*
X109539816Y-45162394D01*
X109575210Y-45127000D01*
X110424790Y-45127000D01*
X110460184Y-45162394D01*
X110663113Y-45297988D01*
X110888597Y-45391386D01*
X111127969Y-45439000D01*
X111372031Y-45439000D01*
X111611403Y-45391386D01*
X111836887Y-45297988D01*
X112039816Y-45162394D01*
X112075210Y-45127000D01*
X132924790Y-45127000D01*
X132960184Y-45162394D01*
X133163113Y-45297988D01*
X133388597Y-45391386D01*
X133627969Y-45439000D01*
X133872031Y-45439000D01*
X134111403Y-45391386D01*
X134336887Y-45297988D01*
X134539816Y-45162394D01*
X134575210Y-45127000D01*
X135424790Y-45127000D01*
X135460184Y-45162394D01*
X135663113Y-45297988D01*
X135888597Y-45391386D01*
X136127969Y-45439000D01*
X136372031Y-45439000D01*
X136611403Y-45391386D01*
X136836887Y-45297988D01*
X137039816Y-45162394D01*
X137075210Y-45127000D01*
X157924790Y-45127000D01*
X157960184Y-45162394D01*
X158163113Y-45297988D01*
X158388597Y-45391386D01*
X158627969Y-45439000D01*
X158872031Y-45439000D01*
X159111403Y-45391386D01*
X159336887Y-45297988D01*
X159539816Y-45162394D01*
X159575210Y-45127000D01*
X160424790Y-45127000D01*
X160460184Y-45162394D01*
X160663113Y-45297988D01*
X160888597Y-45391386D01*
X161127969Y-45439000D01*
X161372031Y-45439000D01*
X161611403Y-45391386D01*
X161836887Y-45297988D01*
X162039816Y-45162394D01*
X162075210Y-45127000D01*
X182924790Y-45127000D01*
X182960184Y-45162394D01*
X183163113Y-45297988D01*
X183388597Y-45391386D01*
X183627969Y-45439000D01*
X183872031Y-45439000D01*
X184111403Y-45391386D01*
X184336887Y-45297988D01*
X184539816Y-45162394D01*
X184575210Y-45127000D01*
X185424790Y-45127000D01*
X185460184Y-45162394D01*
X185663113Y-45297988D01*
X185888597Y-45391386D01*
X186127969Y-45439000D01*
X186372031Y-45439000D01*
X186611403Y-45391386D01*
X186836887Y-45297988D01*
X187039816Y-45162394D01*
X187075210Y-45127000D01*
X207924790Y-45127000D01*
X207960184Y-45162394D01*
X208163113Y-45297988D01*
X208388597Y-45391386D01*
X208627969Y-45439000D01*
X208872031Y-45439000D01*
X209111403Y-45391386D01*
X209336887Y-45297988D01*
X209539816Y-45162394D01*
X209575210Y-45127000D01*
X210424790Y-45127000D01*
X210460184Y-45162394D01*
X210663113Y-45297988D01*
X210888597Y-45391386D01*
X211127969Y-45439000D01*
X211372031Y-45439000D01*
X211611403Y-45391386D01*
X211836887Y-45297988D01*
X212039816Y-45162394D01*
X212075210Y-45127000D01*
X232924790Y-45127000D01*
X232960184Y-45162394D01*
X233163113Y-45297988D01*
X233388597Y-45391386D01*
X233627969Y-45439000D01*
X233872031Y-45439000D01*
X234111403Y-45391386D01*
X234336887Y-45297988D01*
X234539816Y-45162394D01*
X234575210Y-45127000D01*
X235424790Y-45127000D01*
X235460184Y-45162394D01*
X235663113Y-45297988D01*
X235888597Y-45391386D01*
X236127969Y-45439000D01*
X236372031Y-45439000D01*
X236611403Y-45391386D01*
X236836887Y-45297988D01*
X237039816Y-45162394D01*
X237075210Y-45127000D01*
X238840000Y-45127000D01*
X238840000Y-50873000D01*
X236524058Y-50873000D01*
X236405919Y-50696192D01*
X236153808Y-50444081D01*
X235857357Y-50245999D01*
X235527958Y-50109557D01*
X235178269Y-50040000D01*
X234821731Y-50040000D01*
X234472042Y-50109557D01*
X234142643Y-50245999D01*
X233846192Y-50444081D01*
X233594081Y-50696192D01*
X233475942Y-50873000D01*
X211524058Y-50873000D01*
X211405919Y-50696192D01*
X211153808Y-50444081D01*
X210857357Y-50245999D01*
X210527958Y-50109557D01*
X210178269Y-50040000D01*
X209821731Y-50040000D01*
X209472042Y-50109557D01*
X209142643Y-50245999D01*
X208846192Y-50444081D01*
X208594081Y-50696192D01*
X208475942Y-50873000D01*
X186524058Y-50873000D01*
X186405919Y-50696192D01*
X186153808Y-50444081D01*
X185857357Y-50245999D01*
X185527958Y-50109557D01*
X185178269Y-50040000D01*
X184821731Y-50040000D01*
X184472042Y-50109557D01*
X184142643Y-50245999D01*
X183846192Y-50444081D01*
X183594081Y-50696192D01*
X183475942Y-50873000D01*
X161524058Y-50873000D01*
X161405919Y-50696192D01*
X161153808Y-50444081D01*
X160857357Y-50245999D01*
X160527958Y-50109557D01*
X160178269Y-50040000D01*
X159821731Y-50040000D01*
X159472042Y-50109557D01*
X159142643Y-50245999D01*
X158846192Y-50444081D01*
X158594081Y-50696192D01*
X158475942Y-50873000D01*
X136524058Y-50873000D01*
X136405919Y-50696192D01*
X136153808Y-50444081D01*
X135857357Y-50245999D01*
X135527958Y-50109557D01*
X135178269Y-50040000D01*
X134821731Y-50040000D01*
X134472042Y-50109557D01*
X134142643Y-50245999D01*
X133846192Y-50444081D01*
X133594081Y-50696192D01*
X133475942Y-50873000D01*
X111524058Y-50873000D01*
X111405919Y-50696192D01*
X111153808Y-50444081D01*
X110857357Y-50245999D01*
X110527958Y-50109557D01*
X110178269Y-50040000D01*
X109821731Y-50040000D01*
X109472042Y-50109557D01*
X109142643Y-50245999D01*
X108846192Y-50444081D01*
X108594081Y-50696192D01*
X108475942Y-50873000D01*
X86524058Y-50873000D01*
X86405919Y-50696192D01*
X86153808Y-50444081D01*
X85857357Y-50245999D01*
X85527958Y-50109557D01*
X85178269Y-50040000D01*
X84821731Y-50040000D01*
X84472042Y-50109557D01*
X84142643Y-50245999D01*
X83846192Y-50444081D01*
X83594081Y-50696192D01*
X83475942Y-50873000D01*
X61524058Y-50873000D01*
X61405919Y-50696192D01*
X61153808Y-50444081D01*
X60857357Y-50245999D01*
X60527958Y-50109557D01*
X60178269Y-50040000D01*
X59821731Y-50040000D01*
X59472042Y-50109557D01*
X59142643Y-50245999D01*
X58846192Y-50444081D01*
X58594081Y-50696192D01*
X58475942Y-50873000D01*
X56127000Y-50873000D01*
X56127000Y-45127000D01*
X57924790Y-45127000D01*
X57960184Y-45162394D01*
G37*
X57960184Y-45162394D02*
X58163113Y-45297988D01*
X58388597Y-45391386D01*
X58627969Y-45439000D01*
X58872031Y-45439000D01*
X59111403Y-45391386D01*
X59336887Y-45297988D01*
X59539816Y-45162394D01*
X59575210Y-45127000D01*
X60424790Y-45127000D01*
X60460184Y-45162394D01*
X60663113Y-45297988D01*
X60888597Y-45391386D01*
X61127969Y-45439000D01*
X61372031Y-45439000D01*
X61611403Y-45391386D01*
X61836887Y-45297988D01*
X62039816Y-45162394D01*
X62075210Y-45127000D01*
X82924790Y-45127000D01*
X82960184Y-45162394D01*
X83163113Y-45297988D01*
X83388597Y-45391386D01*
X83627969Y-45439000D01*
X83872031Y-45439000D01*
X84111403Y-45391386D01*
X84336887Y-45297988D01*
X84539816Y-45162394D01*
X84575210Y-45127000D01*
X85424790Y-45127000D01*
X85460184Y-45162394D01*
X85663113Y-45297988D01*
X85888597Y-45391386D01*
X86127969Y-45439000D01*
X86372031Y-45439000D01*
X86611403Y-45391386D01*
X86836887Y-45297988D01*
X87039816Y-45162394D01*
X87075210Y-45127000D01*
X94703491Y-45127000D01*
X95055330Y-45478839D01*
X95683446Y-45898533D01*
X96381372Y-46187623D01*
X97122285Y-46335000D01*
X97877715Y-46335000D01*
X98618628Y-46187623D01*
X99316554Y-45898533D01*
X99944670Y-45478839D01*
X100296509Y-45127000D01*
X107924790Y-45127000D01*
X107960184Y-45162394D01*
X108163113Y-45297988D01*
X108388597Y-45391386D01*
X108627969Y-45439000D01*
X108872031Y-45439000D01*
X109111403Y-45391386D01*
X109336887Y-45297988D01*
X109539816Y-45162394D01*
X109575210Y-45127000D01*
X110424790Y-45127000D01*
X110460184Y-45162394D01*
X110663113Y-45297988D01*
X110888597Y-45391386D01*
X111127969Y-45439000D01*
X111372031Y-45439000D01*
X111611403Y-45391386D01*
X111836887Y-45297988D01*
X112039816Y-45162394D01*
X112075210Y-45127000D01*
X132924790Y-45127000D01*
X132960184Y-45162394D01*
X133163113Y-45297988D01*
X133388597Y-45391386D01*
X133627969Y-45439000D01*
X133872031Y-45439000D01*
X134111403Y-45391386D01*
X134336887Y-45297988D01*
X134539816Y-45162394D01*
X134575210Y-45127000D01*
X135424790Y-45127000D01*
X135460184Y-45162394D01*
X135663113Y-45297988D01*
X135888597Y-45391386D01*
X136127969Y-45439000D01*
X136372031Y-45439000D01*
X136611403Y-45391386D01*
X136836887Y-45297988D01*
X137039816Y-45162394D01*
X137075210Y-45127000D01*
X157924790Y-45127000D01*
X157960184Y-45162394D01*
X158163113Y-45297988D01*
X158388597Y-45391386D01*
X158627969Y-45439000D01*
X158872031Y-45439000D01*
X159111403Y-45391386D01*
X159336887Y-45297988D01*
X159539816Y-45162394D01*
X159575210Y-45127000D01*
X160424790Y-45127000D01*
X160460184Y-45162394D01*
X160663113Y-45297988D01*
X160888597Y-45391386D01*
X161127969Y-45439000D01*
X161372031Y-45439000D01*
X161611403Y-45391386D01*
X161836887Y-45297988D01*
X162039816Y-45162394D01*
X162075210Y-45127000D01*
X182924790Y-45127000D01*
X182960184Y-45162394D01*
X183163113Y-45297988D01*
X183388597Y-45391386D01*
X183627969Y-45439000D01*
X183872031Y-45439000D01*
X184111403Y-45391386D01*
X184336887Y-45297988D01*
X184539816Y-45162394D01*
X184575210Y-45127000D01*
X185424790Y-45127000D01*
X185460184Y-45162394D01*
X185663113Y-45297988D01*
X185888597Y-45391386D01*
X186127969Y-45439000D01*
X186372031Y-45439000D01*
X186611403Y-45391386D01*
X186836887Y-45297988D01*
X187039816Y-45162394D01*
X187075210Y-45127000D01*
X207924790Y-45127000D01*
X207960184Y-45162394D01*
X208163113Y-45297988D01*
X208388597Y-45391386D01*
X208627969Y-45439000D01*
X208872031Y-45439000D01*
X209111403Y-45391386D01*
X209336887Y-45297988D01*
X209539816Y-45162394D01*
X209575210Y-45127000D01*
X210424790Y-45127000D01*
X210460184Y-45162394D01*
X210663113Y-45297988D01*
X210888597Y-45391386D01*
X211127969Y-45439000D01*
X211372031Y-45439000D01*
X211611403Y-45391386D01*
X211836887Y-45297988D01*
X212039816Y-45162394D01*
X212075210Y-45127000D01*
X232924790Y-45127000D01*
X232960184Y-45162394D01*
X233163113Y-45297988D01*
X233388597Y-45391386D01*
X233627969Y-45439000D01*
X233872031Y-45439000D01*
X234111403Y-45391386D01*
X234336887Y-45297988D01*
X234539816Y-45162394D01*
X234575210Y-45127000D01*
X235424790Y-45127000D01*
X235460184Y-45162394D01*
X235663113Y-45297988D01*
X235888597Y-45391386D01*
X236127969Y-45439000D01*
X236372031Y-45439000D01*
X236611403Y-45391386D01*
X236836887Y-45297988D01*
X237039816Y-45162394D01*
X237075210Y-45127000D01*
X238840000Y-45127000D01*
X238840000Y-50873000D01*
X236524058Y-50873000D01*
X236405919Y-50696192D01*
X236153808Y-50444081D01*
X235857357Y-50245999D01*
X235527958Y-50109557D01*
X235178269Y-50040000D01*
X234821731Y-50040000D01*
X234472042Y-50109557D01*
X234142643Y-50245999D01*
X233846192Y-50444081D01*
X233594081Y-50696192D01*
X233475942Y-50873000D01*
X211524058Y-50873000D01*
X211405919Y-50696192D01*
X211153808Y-50444081D01*
X210857357Y-50245999D01*
X210527958Y-50109557D01*
X210178269Y-50040000D01*
X209821731Y-50040000D01*
X209472042Y-50109557D01*
X209142643Y-50245999D01*
X208846192Y-50444081D01*
X208594081Y-50696192D01*
X208475942Y-50873000D01*
X186524058Y-50873000D01*
X186405919Y-50696192D01*
X186153808Y-50444081D01*
X185857357Y-50245999D01*
X185527958Y-50109557D01*
X185178269Y-50040000D01*
X184821731Y-50040000D01*
X184472042Y-50109557D01*
X184142643Y-50245999D01*
X183846192Y-50444081D01*
X183594081Y-50696192D01*
X183475942Y-50873000D01*
X161524058Y-50873000D01*
X161405919Y-50696192D01*
X161153808Y-50444081D01*
X160857357Y-50245999D01*
X160527958Y-50109557D01*
X160178269Y-50040000D01*
X159821731Y-50040000D01*
X159472042Y-50109557D01*
X159142643Y-50245999D01*
X158846192Y-50444081D01*
X158594081Y-50696192D01*
X158475942Y-50873000D01*
X136524058Y-50873000D01*
X136405919Y-50696192D01*
X136153808Y-50444081D01*
X135857357Y-50245999D01*
X135527958Y-50109557D01*
X135178269Y-50040000D01*
X134821731Y-50040000D01*
X134472042Y-50109557D01*
X134142643Y-50245999D01*
X133846192Y-50444081D01*
X133594081Y-50696192D01*
X133475942Y-50873000D01*
X111524058Y-50873000D01*
X111405919Y-50696192D01*
X111153808Y-50444081D01*
X110857357Y-50245999D01*
X110527958Y-50109557D01*
X110178269Y-50040000D01*
X109821731Y-50040000D01*
X109472042Y-50109557D01*
X109142643Y-50245999D01*
X108846192Y-50444081D01*
X108594081Y-50696192D01*
X108475942Y-50873000D01*
X86524058Y-50873000D01*
X86405919Y-50696192D01*
X86153808Y-50444081D01*
X85857357Y-50245999D01*
X85527958Y-50109557D01*
X85178269Y-50040000D01*
X84821731Y-50040000D01*
X84472042Y-50109557D01*
X84142643Y-50245999D01*
X83846192Y-50444081D01*
X83594081Y-50696192D01*
X83475942Y-50873000D01*
X61524058Y-50873000D01*
X61405919Y-50696192D01*
X61153808Y-50444081D01*
X60857357Y-50245999D01*
X60527958Y-50109557D01*
X60178269Y-50040000D01*
X59821731Y-50040000D01*
X59472042Y-50109557D01*
X59142643Y-50245999D01*
X58846192Y-50444081D01*
X58594081Y-50696192D01*
X58475942Y-50873000D01*
X56127000Y-50873000D01*
X56127000Y-45127000D01*
X57924790Y-45127000D01*
X57960184Y-45162394D01*
G36*
X238840000Y-44104092D02*
G01*
X238836887Y-44102012D01*
X238611403Y-44008614D01*
X238372031Y-43961000D01*
X238127969Y-43961000D01*
X237888597Y-44008614D01*
X237663113Y-44102012D01*
X237460184Y-44237606D01*
X237324790Y-44373000D01*
X232675210Y-44373000D01*
X232539816Y-44237606D01*
X232336887Y-44102012D01*
X232111403Y-44008614D01*
X231872031Y-43961000D01*
X231627969Y-43961000D01*
X231388597Y-44008614D01*
X231163113Y-44102012D01*
X230960184Y-44237606D01*
X230824790Y-44373000D01*
X214175210Y-44373000D01*
X214039816Y-44237606D01*
X213836887Y-44102012D01*
X213611403Y-44008614D01*
X213372031Y-43961000D01*
X213127969Y-43961000D01*
X212888597Y-44008614D01*
X212663113Y-44102012D01*
X212460184Y-44237606D01*
X212324790Y-44373000D01*
X207675210Y-44373000D01*
X207539816Y-44237606D01*
X207336887Y-44102012D01*
X207111403Y-44008614D01*
X206872031Y-43961000D01*
X206627969Y-43961000D01*
X206388597Y-44008614D01*
X206163113Y-44102012D01*
X205960184Y-44237606D01*
X205824790Y-44373000D01*
X189175210Y-44373000D01*
X189039816Y-44237606D01*
X188836887Y-44102012D01*
X188611403Y-44008614D01*
X188372031Y-43961000D01*
X188127969Y-43961000D01*
X187888597Y-44008614D01*
X187663113Y-44102012D01*
X187460184Y-44237606D01*
X187324790Y-44373000D01*
X182675210Y-44373000D01*
X182539816Y-44237606D01*
X182336887Y-44102012D01*
X182111403Y-44008614D01*
X181872031Y-43961000D01*
X181627969Y-43961000D01*
X181388597Y-44008614D01*
X181163113Y-44102012D01*
X180960184Y-44237606D01*
X180824790Y-44373000D01*
X164175210Y-44373000D01*
X164039816Y-44237606D01*
X163836887Y-44102012D01*
X163611403Y-44008614D01*
X163372031Y-43961000D01*
X163127969Y-43961000D01*
X162888597Y-44008614D01*
X162663113Y-44102012D01*
X162460184Y-44237606D01*
X162324790Y-44373000D01*
X157675210Y-44373000D01*
X157539816Y-44237606D01*
X157336887Y-44102012D01*
X157111403Y-44008614D01*
X156872031Y-43961000D01*
X156627969Y-43961000D01*
X156388597Y-44008614D01*
X156163113Y-44102012D01*
X155960184Y-44237606D01*
X155824790Y-44373000D01*
X139175210Y-44373000D01*
X139039816Y-44237606D01*
X138836887Y-44102012D01*
X138611403Y-44008614D01*
X138372031Y-43961000D01*
X138127969Y-43961000D01*
X137888597Y-44008614D01*
X137663113Y-44102012D01*
X137460184Y-44237606D01*
X137324790Y-44373000D01*
X132675210Y-44373000D01*
X132539816Y-44237606D01*
X132336887Y-44102012D01*
X132111403Y-44008614D01*
X131872031Y-43961000D01*
X131627969Y-43961000D01*
X131388597Y-44008614D01*
X131163113Y-44102012D01*
X130960184Y-44237606D01*
X130824790Y-44373000D01*
X124722932Y-44373000D01*
X124316554Y-44101467D01*
X123618628Y-43812377D01*
X122877715Y-43665000D01*
X122122285Y-43665000D01*
X121381372Y-43812377D01*
X120683446Y-44101467D01*
X120277068Y-44373000D01*
X114175210Y-44373000D01*
X114039816Y-44237606D01*
X113836887Y-44102012D01*
X113611403Y-44008614D01*
X113372031Y-43961000D01*
X113127969Y-43961000D01*
X112888597Y-44008614D01*
X112663113Y-44102012D01*
X112460184Y-44237606D01*
X112324790Y-44373000D01*
X107675210Y-44373000D01*
X107539816Y-44237606D01*
X107336887Y-44102012D01*
X107111403Y-44008614D01*
X106872031Y-43961000D01*
X106627969Y-43961000D01*
X106388597Y-44008614D01*
X106163113Y-44102012D01*
X105960184Y-44237606D01*
X105824790Y-44373000D01*
X89175210Y-44373000D01*
X89039816Y-44237606D01*
X88836887Y-44102012D01*
X88611403Y-44008614D01*
X88372031Y-43961000D01*
X88127969Y-43961000D01*
X87888597Y-44008614D01*
X87663113Y-44102012D01*
X87460184Y-44237606D01*
X87324790Y-44373000D01*
X82675210Y-44373000D01*
X82539816Y-44237606D01*
X82336887Y-44102012D01*
X82111403Y-44008614D01*
X81872031Y-43961000D01*
X81627969Y-43961000D01*
X81388597Y-44008614D01*
X81163113Y-44102012D01*
X80960184Y-44237606D01*
X80824790Y-44373000D01*
X64175210Y-44373000D01*
X64039816Y-44237606D01*
X63836887Y-44102012D01*
X63611403Y-44008614D01*
X63372031Y-43961000D01*
X63127969Y-43961000D01*
X62888597Y-44008614D01*
X62663113Y-44102012D01*
X62460184Y-44237606D01*
X62324790Y-44373000D01*
X57675210Y-44373000D01*
X57539816Y-44237606D01*
X57336887Y-44102012D01*
X57111403Y-44008614D01*
X56872031Y-43961000D01*
X56627969Y-43961000D01*
X56388597Y-44008614D01*
X56163113Y-44102012D01*
X56127000Y-44126142D01*
X56127000Y-39127000D01*
X238840000Y-39127000D01*
X238840000Y-44104092D01*
G37*
X238840000Y-44104092D02*
X238836887Y-44102012D01*
X238611403Y-44008614D01*
X238372031Y-43961000D01*
X238127969Y-43961000D01*
X237888597Y-44008614D01*
X237663113Y-44102012D01*
X237460184Y-44237606D01*
X237324790Y-44373000D01*
X232675210Y-44373000D01*
X232539816Y-44237606D01*
X232336887Y-44102012D01*
X232111403Y-44008614D01*
X231872031Y-43961000D01*
X231627969Y-43961000D01*
X231388597Y-44008614D01*
X231163113Y-44102012D01*
X230960184Y-44237606D01*
X230824790Y-44373000D01*
X214175210Y-44373000D01*
X214039816Y-44237606D01*
X213836887Y-44102012D01*
X213611403Y-44008614D01*
X213372031Y-43961000D01*
X213127969Y-43961000D01*
X212888597Y-44008614D01*
X212663113Y-44102012D01*
X212460184Y-44237606D01*
X212324790Y-44373000D01*
X207675210Y-44373000D01*
X207539816Y-44237606D01*
X207336887Y-44102012D01*
X207111403Y-44008614D01*
X206872031Y-43961000D01*
X206627969Y-43961000D01*
X206388597Y-44008614D01*
X206163113Y-44102012D01*
X205960184Y-44237606D01*
X205824790Y-44373000D01*
X189175210Y-44373000D01*
X189039816Y-44237606D01*
X188836887Y-44102012D01*
X188611403Y-44008614D01*
X188372031Y-43961000D01*
X188127969Y-43961000D01*
X187888597Y-44008614D01*
X187663113Y-44102012D01*
X187460184Y-44237606D01*
X187324790Y-44373000D01*
X182675210Y-44373000D01*
X182539816Y-44237606D01*
X182336887Y-44102012D01*
X182111403Y-44008614D01*
X181872031Y-43961000D01*
X181627969Y-43961000D01*
X181388597Y-44008614D01*
X181163113Y-44102012D01*
X180960184Y-44237606D01*
X180824790Y-44373000D01*
X164175210Y-44373000D01*
X164039816Y-44237606D01*
X163836887Y-44102012D01*
X163611403Y-44008614D01*
X163372031Y-43961000D01*
X163127969Y-43961000D01*
X162888597Y-44008614D01*
X162663113Y-44102012D01*
X162460184Y-44237606D01*
X162324790Y-44373000D01*
X157675210Y-44373000D01*
X157539816Y-44237606D01*
X157336887Y-44102012D01*
X157111403Y-44008614D01*
X156872031Y-43961000D01*
X156627969Y-43961000D01*
X156388597Y-44008614D01*
X156163113Y-44102012D01*
X155960184Y-44237606D01*
X155824790Y-44373000D01*
X139175210Y-44373000D01*
X139039816Y-44237606D01*
X138836887Y-44102012D01*
X138611403Y-44008614D01*
X138372031Y-43961000D01*
X138127969Y-43961000D01*
X137888597Y-44008614D01*
X137663113Y-44102012D01*
X137460184Y-44237606D01*
X137324790Y-44373000D01*
X132675210Y-44373000D01*
X132539816Y-44237606D01*
X132336887Y-44102012D01*
X132111403Y-44008614D01*
X131872031Y-43961000D01*
X131627969Y-43961000D01*
X131388597Y-44008614D01*
X131163113Y-44102012D01*
X130960184Y-44237606D01*
X130824790Y-44373000D01*
X124722932Y-44373000D01*
X124316554Y-44101467D01*
X123618628Y-43812377D01*
X122877715Y-43665000D01*
X122122285Y-43665000D01*
X121381372Y-43812377D01*
X120683446Y-44101467D01*
X120277068Y-44373000D01*
X114175210Y-44373000D01*
X114039816Y-44237606D01*
X113836887Y-44102012D01*
X113611403Y-44008614D01*
X113372031Y-43961000D01*
X113127969Y-43961000D01*
X112888597Y-44008614D01*
X112663113Y-44102012D01*
X112460184Y-44237606D01*
X112324790Y-44373000D01*
X107675210Y-44373000D01*
X107539816Y-44237606D01*
X107336887Y-44102012D01*
X107111403Y-44008614D01*
X106872031Y-43961000D01*
X106627969Y-43961000D01*
X106388597Y-44008614D01*
X106163113Y-44102012D01*
X105960184Y-44237606D01*
X105824790Y-44373000D01*
X89175210Y-44373000D01*
X89039816Y-44237606D01*
X88836887Y-44102012D01*
X88611403Y-44008614D01*
X88372031Y-43961000D01*
X88127969Y-43961000D01*
X87888597Y-44008614D01*
X87663113Y-44102012D01*
X87460184Y-44237606D01*
X87324790Y-44373000D01*
X82675210Y-44373000D01*
X82539816Y-44237606D01*
X82336887Y-44102012D01*
X82111403Y-44008614D01*
X81872031Y-43961000D01*
X81627969Y-43961000D01*
X81388597Y-44008614D01*
X81163113Y-44102012D01*
X80960184Y-44237606D01*
X80824790Y-44373000D01*
X64175210Y-44373000D01*
X64039816Y-44237606D01*
X63836887Y-44102012D01*
X63611403Y-44008614D01*
X63372031Y-43961000D01*
X63127969Y-43961000D01*
X62888597Y-44008614D01*
X62663113Y-44102012D01*
X62460184Y-44237606D01*
X62324790Y-44373000D01*
X57675210Y-44373000D01*
X57539816Y-44237606D01*
X57336887Y-44102012D01*
X57111403Y-44008614D01*
X56872031Y-43961000D01*
X56627969Y-43961000D01*
X56388597Y-44008614D01*
X56163113Y-44102012D01*
X56127000Y-44126142D01*
X56127000Y-39127000D01*
X238840000Y-39127000D01*
X238840000Y-44104092D01*
M02*
