M48
; DRILL file {KiCad 5.1.5} date wto, 28 kwi 2020, 21:46:40
; FORMAT={-:-/ absolute / metric / decimal}
; #@! TF.CreationDate,2020-04-28T21:46:40+02:00
; #@! TF.GenerationSoftware,Kicad,Pcbnew,5.1.5
; #@! TF.FileFunction,NonPlated,1,2,NPTH
FMAT,2
METRIC
T1C2.350
T2C3.200
%
G90
G05
T1
X110.0Y-75.0
X85.0Y-51.85
X60.0Y-51.85
X60.0Y-75.0
X135.0Y-75.0
X185.0Y-51.85
X185.0Y-75.0
X235.0Y-51.85
X235.0Y-75.0
X110.0Y-51.85
X210.0Y-51.85
X210.0Y-75.0
X160.0Y-51.85
X160.0Y-75.0
X85.0Y-75.0
X135.0Y-51.85
T2
X222.5Y-35.0
X72.5Y-79.0
X147.5Y-35.0
X222.5Y-79.0
X147.5Y-79.0
X72.5Y-35.0
T0
M30
