G04 #@! TF.GenerationSoftware,KiCad,Pcbnew,5.1.5*
G04 #@! TF.CreationDate,2020-04-28T21:46:35+02:00*
G04 #@! TF.ProjectId,backplane,6261636b-706c-4616-9e65-2e6b69636164,rev?*
G04 #@! TF.SameCoordinates,Original*
G04 #@! TF.FileFunction,Copper,L2,Bot*
G04 #@! TF.FilePolarity,Positive*
%FSLAX46Y46*%
G04 Gerber Fmt 4.6, Leading zero omitted, Abs format (unit mm)*
G04 Created by KiCad (PCBNEW 5.1.5) date 2020-04-28 21:46:35*
%MOMM*%
%LPD*%
G04 APERTURE LIST*
%ADD10C,0.800000*%
%ADD11C,6.400000*%
%ADD12C,1.208000*%
%ADD13R,1.208000X1.208000*%
%ADD14C,0.250000*%
%ADD15C,0.254000*%
G04 APERTURE END LIST*
D10*
X99197056Y-40802944D03*
X97500000Y-40100000D03*
X95802944Y-40802944D03*
X95100000Y-42500000D03*
X95802944Y-44197056D03*
X97500000Y-44900000D03*
X99197056Y-44197056D03*
X99900000Y-42500000D03*
D11*
X97500000Y-42500000D03*
X122500000Y-47500000D03*
D10*
X124900000Y-47500000D03*
X124197056Y-49197056D03*
X122500000Y-49900000D03*
X120802944Y-49197056D03*
X120100000Y-47500000D03*
X120802944Y-45802944D03*
X122500000Y-45100000D03*
X124197056Y-45802944D03*
D12*
X58750000Y-72200000D03*
X56750000Y-71200000D03*
X58750000Y-70200000D03*
X56750000Y-69200000D03*
X58750000Y-68200000D03*
X56750000Y-67200000D03*
X58750000Y-66200000D03*
X56750000Y-65200000D03*
X58750000Y-64200000D03*
X56750000Y-63200000D03*
X58750000Y-62200000D03*
X56750000Y-61200000D03*
X58750000Y-60200000D03*
X56750000Y-59200000D03*
X58750000Y-58200000D03*
X56750000Y-57200000D03*
X58750000Y-56200000D03*
X56750000Y-55200000D03*
X58750000Y-54200000D03*
X58750000Y-50200000D03*
X56750000Y-49200000D03*
X58750000Y-48200000D03*
X56750000Y-47200000D03*
X58750000Y-46200000D03*
X56750000Y-45200000D03*
X58750000Y-44200000D03*
X56750000Y-43200000D03*
X58750000Y-42200000D03*
X61250000Y-72200000D03*
X63250000Y-71200000D03*
X61250000Y-70200000D03*
X63250000Y-69200000D03*
X61250000Y-68200000D03*
X63250000Y-67200000D03*
X61250000Y-66200000D03*
X63250000Y-65200000D03*
X61250000Y-64200000D03*
X63250000Y-63200000D03*
X61250000Y-62200000D03*
X63250000Y-61200000D03*
X61250000Y-60200000D03*
X63250000Y-59200000D03*
X61250000Y-58200000D03*
X63250000Y-57200000D03*
X61250000Y-56200000D03*
X63250000Y-55200000D03*
X61250000Y-50200000D03*
X63250000Y-49200000D03*
X61250000Y-48200000D03*
X63250000Y-47200000D03*
X61250000Y-46200000D03*
X63250000Y-45200000D03*
X61250000Y-44200000D03*
X63250000Y-43200000D03*
X61250000Y-42200000D03*
X63250000Y-41200000D03*
X56750000Y-41200000D03*
X58750000Y-40200000D03*
D13*
X61250000Y-40200000D03*
D12*
X56750000Y-73200000D03*
X56750000Y-53200000D03*
X61250000Y-54200000D03*
X63250000Y-53200000D03*
X63250000Y-73200000D03*
X88250000Y-73200000D03*
X88250000Y-53200000D03*
X86250000Y-54200000D03*
X81750000Y-53200000D03*
X81750000Y-73200000D03*
D13*
X86250000Y-40200000D03*
D12*
X83750000Y-40200000D03*
X81750000Y-41200000D03*
X88250000Y-41200000D03*
X86250000Y-42200000D03*
X88250000Y-43200000D03*
X86250000Y-44200000D03*
X88250000Y-45200000D03*
X86250000Y-46200000D03*
X88250000Y-47200000D03*
X86250000Y-48200000D03*
X88250000Y-49200000D03*
X86250000Y-50200000D03*
X88250000Y-55200000D03*
X86250000Y-56200000D03*
X88250000Y-57200000D03*
X86250000Y-58200000D03*
X88250000Y-59200000D03*
X86250000Y-60200000D03*
X88250000Y-61200000D03*
X86250000Y-62200000D03*
X88250000Y-63200000D03*
X86250000Y-64200000D03*
X88250000Y-65200000D03*
X86250000Y-66200000D03*
X88250000Y-67200000D03*
X86250000Y-68200000D03*
X88250000Y-69200000D03*
X86250000Y-70200000D03*
X88250000Y-71200000D03*
X86250000Y-72200000D03*
X83750000Y-42200000D03*
X81750000Y-43200000D03*
X83750000Y-44200000D03*
X81750000Y-45200000D03*
X83750000Y-46200000D03*
X81750000Y-47200000D03*
X83750000Y-48200000D03*
X81750000Y-49200000D03*
X83750000Y-50200000D03*
X83750000Y-54200000D03*
X81750000Y-55200000D03*
X83750000Y-56200000D03*
X81750000Y-57200000D03*
X83750000Y-58200000D03*
X81750000Y-59200000D03*
X83750000Y-60200000D03*
X81750000Y-61200000D03*
X83750000Y-62200000D03*
X81750000Y-63200000D03*
X83750000Y-64200000D03*
X81750000Y-65200000D03*
X83750000Y-66200000D03*
X81750000Y-67200000D03*
X83750000Y-68200000D03*
X81750000Y-69200000D03*
X83750000Y-70200000D03*
X81750000Y-71200000D03*
X83750000Y-72200000D03*
X108750000Y-72200000D03*
X106750000Y-71200000D03*
X108750000Y-70200000D03*
X106750000Y-69200000D03*
X108750000Y-68200000D03*
X106750000Y-67200000D03*
X108750000Y-66200000D03*
X106750000Y-65200000D03*
X108750000Y-64200000D03*
X106750000Y-63200000D03*
X108750000Y-62200000D03*
X106750000Y-61200000D03*
X108750000Y-60200000D03*
X106750000Y-59200000D03*
X108750000Y-58200000D03*
X106750000Y-57200000D03*
X108750000Y-56200000D03*
X106750000Y-55200000D03*
X108750000Y-54200000D03*
X108750000Y-50200000D03*
X106750000Y-49200000D03*
X108750000Y-48200000D03*
X106750000Y-47200000D03*
X108750000Y-46200000D03*
X106750000Y-45200000D03*
X108750000Y-44200000D03*
X106750000Y-43200000D03*
X108750000Y-42200000D03*
X111250000Y-72200000D03*
X113250000Y-71200000D03*
X111250000Y-70200000D03*
X113250000Y-69200000D03*
X111250000Y-68200000D03*
X113250000Y-67200000D03*
X111250000Y-66200000D03*
X113250000Y-65200000D03*
X111250000Y-64200000D03*
X113250000Y-63200000D03*
X111250000Y-62200000D03*
X113250000Y-61200000D03*
X111250000Y-60200000D03*
X113250000Y-59200000D03*
X111250000Y-58200000D03*
X113250000Y-57200000D03*
X111250000Y-56200000D03*
X113250000Y-55200000D03*
X111250000Y-50200000D03*
X113250000Y-49200000D03*
X111250000Y-48200000D03*
X113250000Y-47200000D03*
X111250000Y-46200000D03*
X113250000Y-45200000D03*
X111250000Y-44200000D03*
X113250000Y-43200000D03*
X111250000Y-42200000D03*
X113250000Y-41200000D03*
X106750000Y-41200000D03*
X108750000Y-40200000D03*
D13*
X111250000Y-40200000D03*
D12*
X106750000Y-73200000D03*
X106750000Y-53200000D03*
X111250000Y-54200000D03*
X113250000Y-53200000D03*
X113250000Y-73200000D03*
X138250000Y-73200000D03*
X138250000Y-53200000D03*
X136250000Y-54200000D03*
X131750000Y-53200000D03*
X131750000Y-73200000D03*
D13*
X136250000Y-40200000D03*
D12*
X133750000Y-40200000D03*
X131750000Y-41200000D03*
X138250000Y-41200000D03*
X136250000Y-42200000D03*
X138250000Y-43200000D03*
X136250000Y-44200000D03*
X138250000Y-45200000D03*
X136250000Y-46200000D03*
X138250000Y-47200000D03*
X136250000Y-48200000D03*
X138250000Y-49200000D03*
X136250000Y-50200000D03*
X138250000Y-55200000D03*
X136250000Y-56200000D03*
X138250000Y-57200000D03*
X136250000Y-58200000D03*
X138250000Y-59200000D03*
X136250000Y-60200000D03*
X138250000Y-61200000D03*
X136250000Y-62200000D03*
X138250000Y-63200000D03*
X136250000Y-64200000D03*
X138250000Y-65200000D03*
X136250000Y-66200000D03*
X138250000Y-67200000D03*
X136250000Y-68200000D03*
X138250000Y-69200000D03*
X136250000Y-70200000D03*
X138250000Y-71200000D03*
X136250000Y-72200000D03*
X133750000Y-42200000D03*
X131750000Y-43200000D03*
X133750000Y-44200000D03*
X131750000Y-45200000D03*
X133750000Y-46200000D03*
X131750000Y-47200000D03*
X133750000Y-48200000D03*
X131750000Y-49200000D03*
X133750000Y-50200000D03*
X133750000Y-54200000D03*
X131750000Y-55200000D03*
X133750000Y-56200000D03*
X131750000Y-57200000D03*
X133750000Y-58200000D03*
X131750000Y-59200000D03*
X133750000Y-60200000D03*
X131750000Y-61200000D03*
X133750000Y-62200000D03*
X131750000Y-63200000D03*
X133750000Y-64200000D03*
X131750000Y-65200000D03*
X133750000Y-66200000D03*
X131750000Y-67200000D03*
X133750000Y-68200000D03*
X131750000Y-69200000D03*
X133750000Y-70200000D03*
X131750000Y-71200000D03*
X133750000Y-72200000D03*
X158750000Y-72200000D03*
X156750000Y-71200000D03*
X158750000Y-70200000D03*
X156750000Y-69200000D03*
X158750000Y-68200000D03*
X156750000Y-67200000D03*
X158750000Y-66200000D03*
X156750000Y-65200000D03*
X158750000Y-64200000D03*
X156750000Y-63200000D03*
X158750000Y-62200000D03*
X156750000Y-61200000D03*
X158750000Y-60200000D03*
X156750000Y-59200000D03*
X158750000Y-58200000D03*
X156750000Y-57200000D03*
X158750000Y-56200000D03*
X156750000Y-55200000D03*
X158750000Y-54200000D03*
X158750000Y-50200000D03*
X156750000Y-49200000D03*
X158750000Y-48200000D03*
X156750000Y-47200000D03*
X158750000Y-46200000D03*
X156750000Y-45200000D03*
X158750000Y-44200000D03*
X156750000Y-43200000D03*
X158750000Y-42200000D03*
X161250000Y-72200000D03*
X163250000Y-71200000D03*
X161250000Y-70200000D03*
X163250000Y-69200000D03*
X161250000Y-68200000D03*
X163250000Y-67200000D03*
X161250000Y-66200000D03*
X163250000Y-65200000D03*
X161250000Y-64200000D03*
X163250000Y-63200000D03*
X161250000Y-62200000D03*
X163250000Y-61200000D03*
X161250000Y-60200000D03*
X163250000Y-59200000D03*
X161250000Y-58200000D03*
X163250000Y-57200000D03*
X161250000Y-56200000D03*
X163250000Y-55200000D03*
X161250000Y-50200000D03*
X163250000Y-49200000D03*
X161250000Y-48200000D03*
X163250000Y-47200000D03*
X161250000Y-46200000D03*
X163250000Y-45200000D03*
X161250000Y-44200000D03*
X163250000Y-43200000D03*
X161250000Y-42200000D03*
X163250000Y-41200000D03*
X156750000Y-41200000D03*
X158750000Y-40200000D03*
D13*
X161250000Y-40200000D03*
D12*
X156750000Y-73200000D03*
X156750000Y-53200000D03*
X161250000Y-54200000D03*
X163250000Y-53200000D03*
X163250000Y-73200000D03*
X188250000Y-73200000D03*
X188250000Y-53200000D03*
X186250000Y-54200000D03*
X181750000Y-53200000D03*
X181750000Y-73200000D03*
D13*
X186250000Y-40200000D03*
D12*
X183750000Y-40200000D03*
X181750000Y-41200000D03*
X188250000Y-41200000D03*
X186250000Y-42200000D03*
X188250000Y-43200000D03*
X186250000Y-44200000D03*
X188250000Y-45200000D03*
X186250000Y-46200000D03*
X188250000Y-47200000D03*
X186250000Y-48200000D03*
X188250000Y-49200000D03*
X186250000Y-50200000D03*
X188250000Y-55200000D03*
X186250000Y-56200000D03*
X188250000Y-57200000D03*
X186250000Y-58200000D03*
X188250000Y-59200000D03*
X186250000Y-60200000D03*
X188250000Y-61200000D03*
X186250000Y-62200000D03*
X188250000Y-63200000D03*
X186250000Y-64200000D03*
X188250000Y-65200000D03*
X186250000Y-66200000D03*
X188250000Y-67200000D03*
X186250000Y-68200000D03*
X188250000Y-69200000D03*
X186250000Y-70200000D03*
X188250000Y-71200000D03*
X186250000Y-72200000D03*
X183750000Y-42200000D03*
X181750000Y-43200000D03*
X183750000Y-44200000D03*
X181750000Y-45200000D03*
X183750000Y-46200000D03*
X181750000Y-47200000D03*
X183750000Y-48200000D03*
X181750000Y-49200000D03*
X183750000Y-50200000D03*
X183750000Y-54200000D03*
X181750000Y-55200000D03*
X183750000Y-56200000D03*
X181750000Y-57200000D03*
X183750000Y-58200000D03*
X181750000Y-59200000D03*
X183750000Y-60200000D03*
X181750000Y-61200000D03*
X183750000Y-62200000D03*
X181750000Y-63200000D03*
X183750000Y-64200000D03*
X181750000Y-65200000D03*
X183750000Y-66200000D03*
X181750000Y-67200000D03*
X183750000Y-68200000D03*
X181750000Y-69200000D03*
X183750000Y-70200000D03*
X181750000Y-71200000D03*
X183750000Y-72200000D03*
X208750000Y-72200000D03*
X206750000Y-71200000D03*
X208750000Y-70200000D03*
X206750000Y-69200000D03*
X208750000Y-68200000D03*
X206750000Y-67200000D03*
X208750000Y-66200000D03*
X206750000Y-65200000D03*
X208750000Y-64200000D03*
X206750000Y-63200000D03*
X208750000Y-62200000D03*
X206750000Y-61200000D03*
X208750000Y-60200000D03*
X206750000Y-59200000D03*
X208750000Y-58200000D03*
X206750000Y-57200000D03*
X208750000Y-56200000D03*
X206750000Y-55200000D03*
X208750000Y-54200000D03*
X208750000Y-50200000D03*
X206750000Y-49200000D03*
X208750000Y-48200000D03*
X206750000Y-47200000D03*
X208750000Y-46200000D03*
X206750000Y-45200000D03*
X208750000Y-44200000D03*
X206750000Y-43200000D03*
X208750000Y-42200000D03*
X211250000Y-72200000D03*
X213250000Y-71200000D03*
X211250000Y-70200000D03*
X213250000Y-69200000D03*
X211250000Y-68200000D03*
X213250000Y-67200000D03*
X211250000Y-66200000D03*
X213250000Y-65200000D03*
X211250000Y-64200000D03*
X213250000Y-63200000D03*
X211250000Y-62200000D03*
X213250000Y-61200000D03*
X211250000Y-60200000D03*
X213250000Y-59200000D03*
X211250000Y-58200000D03*
X213250000Y-57200000D03*
X211250000Y-56200000D03*
X213250000Y-55200000D03*
X211250000Y-50200000D03*
X213250000Y-49200000D03*
X211250000Y-48200000D03*
X213250000Y-47200000D03*
X211250000Y-46200000D03*
X213250000Y-45200000D03*
X211250000Y-44200000D03*
X213250000Y-43200000D03*
X211250000Y-42200000D03*
X213250000Y-41200000D03*
X206750000Y-41200000D03*
X208750000Y-40200000D03*
D13*
X211250000Y-40200000D03*
D12*
X206750000Y-73200000D03*
X206750000Y-53200000D03*
X211250000Y-54200000D03*
X213250000Y-53200000D03*
X213250000Y-73200000D03*
X238250000Y-73200000D03*
X238250000Y-53200000D03*
X236250000Y-54200000D03*
X231750000Y-53200000D03*
X231750000Y-73200000D03*
D13*
X236250000Y-40200000D03*
D12*
X233750000Y-40200000D03*
X231750000Y-41200000D03*
X238250000Y-41200000D03*
X236250000Y-42200000D03*
X238250000Y-43200000D03*
X236250000Y-44200000D03*
X238250000Y-45200000D03*
X236250000Y-46200000D03*
X238250000Y-47200000D03*
X236250000Y-48200000D03*
X238250000Y-49200000D03*
X236250000Y-50200000D03*
X238250000Y-55200000D03*
X236250000Y-56200000D03*
X238250000Y-57200000D03*
X236250000Y-58200000D03*
X238250000Y-59200000D03*
X236250000Y-60200000D03*
X238250000Y-61200000D03*
X236250000Y-62200000D03*
X238250000Y-63200000D03*
X236250000Y-64200000D03*
X238250000Y-65200000D03*
X236250000Y-66200000D03*
X238250000Y-67200000D03*
X236250000Y-68200000D03*
X238250000Y-69200000D03*
X236250000Y-70200000D03*
X238250000Y-71200000D03*
X236250000Y-72200000D03*
X233750000Y-42200000D03*
X231750000Y-43200000D03*
X233750000Y-44200000D03*
X231750000Y-45200000D03*
X233750000Y-46200000D03*
X231750000Y-47200000D03*
X233750000Y-48200000D03*
X231750000Y-49200000D03*
X233750000Y-50200000D03*
X233750000Y-54200000D03*
X231750000Y-55200000D03*
X233750000Y-56200000D03*
X231750000Y-57200000D03*
X233750000Y-58200000D03*
X231750000Y-59200000D03*
X233750000Y-60200000D03*
X231750000Y-61200000D03*
X233750000Y-62200000D03*
X231750000Y-63200000D03*
X233750000Y-64200000D03*
X231750000Y-65200000D03*
X233750000Y-66200000D03*
X231750000Y-67200000D03*
X233750000Y-68200000D03*
X231750000Y-69200000D03*
X233750000Y-70200000D03*
X231750000Y-71200000D03*
X233750000Y-72200000D03*
D14*
X58146001Y-50803999D02*
X58750000Y-50200000D01*
X57679001Y-54270999D02*
X57679001Y-51270999D01*
X57679001Y-51270999D02*
X58146001Y-50803999D01*
X56750000Y-55200000D02*
X57679001Y-54270999D01*
X63250000Y-52200000D02*
X61250000Y-50200000D01*
X63250000Y-53200000D02*
X63250000Y-52200000D01*
X83146001Y-50803999D02*
X83750000Y-50200000D01*
X82679001Y-51270999D02*
X83146001Y-50803999D01*
X82679001Y-54270999D02*
X82679001Y-51270999D01*
X81750000Y-55200000D02*
X82679001Y-54270999D01*
X86853999Y-50803999D02*
X86250000Y-50200000D01*
X86853999Y-52741817D02*
X86853999Y-50803999D01*
X86250000Y-54200000D02*
X86250000Y-53345816D01*
X86250000Y-53345816D02*
X86853999Y-52741817D01*
X108146001Y-50803999D02*
X108750000Y-50200000D01*
X107679001Y-51270999D02*
X108146001Y-50803999D01*
X107679001Y-54270999D02*
X107679001Y-51270999D01*
X106750000Y-55200000D02*
X107679001Y-54270999D01*
X112250000Y-54200000D02*
X113250000Y-53200000D01*
X111250000Y-54200000D02*
X112250000Y-54200000D01*
X113250000Y-52200000D02*
X111250000Y-50200000D01*
X113250000Y-53200000D02*
X113250000Y-52200000D01*
X133146001Y-50803999D02*
X133750000Y-50200000D01*
X132679001Y-51270999D02*
X133146001Y-50803999D01*
X132679001Y-54270999D02*
X132679001Y-51270999D01*
X131750000Y-55200000D02*
X132679001Y-54270999D01*
X136853999Y-50803999D02*
X136250000Y-50200000D01*
X137320999Y-51270999D02*
X136853999Y-50803999D01*
X137320999Y-54270999D02*
X137320999Y-51270999D01*
X138250000Y-55200000D02*
X137320999Y-54270999D01*
X158146001Y-50803999D02*
X158750000Y-50200000D01*
X157679001Y-51270999D02*
X158146001Y-50803999D01*
X157679001Y-54270999D02*
X157679001Y-51270999D01*
X156750000Y-55200000D02*
X157679001Y-54270999D01*
X163250000Y-55200000D02*
X163250000Y-53200000D01*
X163250000Y-52200000D02*
X161250000Y-50200000D01*
X163250000Y-53200000D02*
X163250000Y-52200000D01*
X182679001Y-51270999D02*
X183146001Y-50803999D01*
X182679001Y-54270999D02*
X182679001Y-51270999D01*
X183146001Y-50803999D02*
X183750000Y-50200000D01*
X181750000Y-55200000D02*
X182679001Y-54270999D01*
X187250000Y-55200000D02*
X186250000Y-54200000D01*
X188250000Y-55200000D02*
X187250000Y-55200000D01*
X186853999Y-50803999D02*
X186250000Y-50200000D01*
X186853999Y-52216003D02*
X186853999Y-50803999D01*
X186250000Y-54200000D02*
X186250000Y-52820002D01*
X186250000Y-52820002D02*
X186853999Y-52216003D01*
X208146001Y-50803999D02*
X208750000Y-50200000D01*
X207679001Y-51270999D02*
X208146001Y-50803999D01*
X207679001Y-54270999D02*
X207679001Y-51270999D01*
X206750000Y-55200000D02*
X207679001Y-54270999D01*
X212250000Y-55200000D02*
X211250000Y-54200000D01*
X213250000Y-55200000D02*
X212250000Y-55200000D01*
X212250000Y-53200000D02*
X211250000Y-54200000D01*
X213250000Y-53200000D02*
X212250000Y-53200000D01*
X212250000Y-51200000D02*
X211250000Y-50200000D01*
X212250000Y-53200000D02*
X212250000Y-51200000D01*
X232679001Y-51270999D02*
X233146001Y-50803999D01*
X232679001Y-54270999D02*
X232679001Y-51270999D01*
X233146001Y-50803999D02*
X233750000Y-50200000D01*
X231750000Y-55200000D02*
X232679001Y-54270999D01*
X236853999Y-50803999D02*
X236250000Y-50200000D01*
X237320999Y-51270999D02*
X236853999Y-50803999D01*
X237320999Y-55129001D02*
X237320999Y-51270999D01*
X236250000Y-56200000D02*
X237320999Y-55129001D01*
D15*
G36*
X238840000Y-44104092D02*
G01*
X238836887Y-44102012D01*
X238611403Y-44008614D01*
X238372031Y-43961000D01*
X238127969Y-43961000D01*
X237888597Y-44008614D01*
X237663113Y-44102012D01*
X237460184Y-44237606D01*
X237324790Y-44373000D01*
X232675210Y-44373000D01*
X232539816Y-44237606D01*
X232336887Y-44102012D01*
X232111403Y-44008614D01*
X231872031Y-43961000D01*
X231627969Y-43961000D01*
X231388597Y-44008614D01*
X231163113Y-44102012D01*
X230960184Y-44237606D01*
X230824790Y-44373000D01*
X214175210Y-44373000D01*
X214039816Y-44237606D01*
X213836887Y-44102012D01*
X213611403Y-44008614D01*
X213372031Y-43961000D01*
X213127969Y-43961000D01*
X212888597Y-44008614D01*
X212663113Y-44102012D01*
X212460184Y-44237606D01*
X212324790Y-44373000D01*
X207675210Y-44373000D01*
X207539816Y-44237606D01*
X207336887Y-44102012D01*
X207111403Y-44008614D01*
X206872031Y-43961000D01*
X206627969Y-43961000D01*
X206388597Y-44008614D01*
X206163113Y-44102012D01*
X205960184Y-44237606D01*
X205824790Y-44373000D01*
X189175210Y-44373000D01*
X189039816Y-44237606D01*
X188836887Y-44102012D01*
X188611403Y-44008614D01*
X188372031Y-43961000D01*
X188127969Y-43961000D01*
X187888597Y-44008614D01*
X187663113Y-44102012D01*
X187460184Y-44237606D01*
X187324790Y-44373000D01*
X182675210Y-44373000D01*
X182539816Y-44237606D01*
X182336887Y-44102012D01*
X182111403Y-44008614D01*
X181872031Y-43961000D01*
X181627969Y-43961000D01*
X181388597Y-44008614D01*
X181163113Y-44102012D01*
X180960184Y-44237606D01*
X180824790Y-44373000D01*
X164175210Y-44373000D01*
X164039816Y-44237606D01*
X163836887Y-44102012D01*
X163611403Y-44008614D01*
X163372031Y-43961000D01*
X163127969Y-43961000D01*
X162888597Y-44008614D01*
X162663113Y-44102012D01*
X162460184Y-44237606D01*
X162324790Y-44373000D01*
X157675210Y-44373000D01*
X157539816Y-44237606D01*
X157336887Y-44102012D01*
X157111403Y-44008614D01*
X156872031Y-43961000D01*
X156627969Y-43961000D01*
X156388597Y-44008614D01*
X156163113Y-44102012D01*
X155960184Y-44237606D01*
X155824790Y-44373000D01*
X139175210Y-44373000D01*
X139039816Y-44237606D01*
X138836887Y-44102012D01*
X138611403Y-44008614D01*
X138372031Y-43961000D01*
X138127969Y-43961000D01*
X137888597Y-44008614D01*
X137663113Y-44102012D01*
X137460184Y-44237606D01*
X137324790Y-44373000D01*
X132675210Y-44373000D01*
X132539816Y-44237606D01*
X132336887Y-44102012D01*
X132111403Y-44008614D01*
X131872031Y-43961000D01*
X131627969Y-43961000D01*
X131388597Y-44008614D01*
X131163113Y-44102012D01*
X130960184Y-44237606D01*
X130824790Y-44373000D01*
X124722932Y-44373000D01*
X124316554Y-44101467D01*
X123618628Y-43812377D01*
X122877715Y-43665000D01*
X122122285Y-43665000D01*
X121381372Y-43812377D01*
X120683446Y-44101467D01*
X120277068Y-44373000D01*
X114175210Y-44373000D01*
X114039816Y-44237606D01*
X113836887Y-44102012D01*
X113611403Y-44008614D01*
X113372031Y-43961000D01*
X113127969Y-43961000D01*
X112888597Y-44008614D01*
X112663113Y-44102012D01*
X112460184Y-44237606D01*
X112324790Y-44373000D01*
X107675210Y-44373000D01*
X107539816Y-44237606D01*
X107336887Y-44102012D01*
X107111403Y-44008614D01*
X106872031Y-43961000D01*
X106627969Y-43961000D01*
X106388597Y-44008614D01*
X106163113Y-44102012D01*
X105960184Y-44237606D01*
X105824790Y-44373000D01*
X89175210Y-44373000D01*
X89039816Y-44237606D01*
X88836887Y-44102012D01*
X88611403Y-44008614D01*
X88372031Y-43961000D01*
X88127969Y-43961000D01*
X87888597Y-44008614D01*
X87663113Y-44102012D01*
X87460184Y-44237606D01*
X87324790Y-44373000D01*
X82675210Y-44373000D01*
X82539816Y-44237606D01*
X82336887Y-44102012D01*
X82111403Y-44008614D01*
X81872031Y-43961000D01*
X81627969Y-43961000D01*
X81388597Y-44008614D01*
X81163113Y-44102012D01*
X80960184Y-44237606D01*
X80824790Y-44373000D01*
X64175210Y-44373000D01*
X64039816Y-44237606D01*
X63836887Y-44102012D01*
X63611403Y-44008614D01*
X63372031Y-43961000D01*
X63127969Y-43961000D01*
X62888597Y-44008614D01*
X62663113Y-44102012D01*
X62460184Y-44237606D01*
X62324790Y-44373000D01*
X57675210Y-44373000D01*
X57539816Y-44237606D01*
X57336887Y-44102012D01*
X57111403Y-44008614D01*
X56872031Y-43961000D01*
X56627969Y-43961000D01*
X56388597Y-44008614D01*
X56163113Y-44102012D01*
X56127000Y-44126142D01*
X56127000Y-39127000D01*
X238840000Y-39127000D01*
X238840000Y-44104092D01*
G37*
X238840000Y-44104092D02*
X238836887Y-44102012D01*
X238611403Y-44008614D01*
X238372031Y-43961000D01*
X238127969Y-43961000D01*
X237888597Y-44008614D01*
X237663113Y-44102012D01*
X237460184Y-44237606D01*
X237324790Y-44373000D01*
X232675210Y-44373000D01*
X232539816Y-44237606D01*
X232336887Y-44102012D01*
X232111403Y-44008614D01*
X231872031Y-43961000D01*
X231627969Y-43961000D01*
X231388597Y-44008614D01*
X231163113Y-44102012D01*
X230960184Y-44237606D01*
X230824790Y-44373000D01*
X214175210Y-44373000D01*
X214039816Y-44237606D01*
X213836887Y-44102012D01*
X213611403Y-44008614D01*
X213372031Y-43961000D01*
X213127969Y-43961000D01*
X212888597Y-44008614D01*
X212663113Y-44102012D01*
X212460184Y-44237606D01*
X212324790Y-44373000D01*
X207675210Y-44373000D01*
X207539816Y-44237606D01*
X207336887Y-44102012D01*
X207111403Y-44008614D01*
X206872031Y-43961000D01*
X206627969Y-43961000D01*
X206388597Y-44008614D01*
X206163113Y-44102012D01*
X205960184Y-44237606D01*
X205824790Y-44373000D01*
X189175210Y-44373000D01*
X189039816Y-44237606D01*
X188836887Y-44102012D01*
X188611403Y-44008614D01*
X188372031Y-43961000D01*
X188127969Y-43961000D01*
X187888597Y-44008614D01*
X187663113Y-44102012D01*
X187460184Y-44237606D01*
X187324790Y-44373000D01*
X182675210Y-44373000D01*
X182539816Y-44237606D01*
X182336887Y-44102012D01*
X182111403Y-44008614D01*
X181872031Y-43961000D01*
X181627969Y-43961000D01*
X181388597Y-44008614D01*
X181163113Y-44102012D01*
X180960184Y-44237606D01*
X180824790Y-44373000D01*
X164175210Y-44373000D01*
X164039816Y-44237606D01*
X163836887Y-44102012D01*
X163611403Y-44008614D01*
X163372031Y-43961000D01*
X163127969Y-43961000D01*
X162888597Y-44008614D01*
X162663113Y-44102012D01*
X162460184Y-44237606D01*
X162324790Y-44373000D01*
X157675210Y-44373000D01*
X157539816Y-44237606D01*
X157336887Y-44102012D01*
X157111403Y-44008614D01*
X156872031Y-43961000D01*
X156627969Y-43961000D01*
X156388597Y-44008614D01*
X156163113Y-44102012D01*
X155960184Y-44237606D01*
X155824790Y-44373000D01*
X139175210Y-44373000D01*
X139039816Y-44237606D01*
X138836887Y-44102012D01*
X138611403Y-44008614D01*
X138372031Y-43961000D01*
X138127969Y-43961000D01*
X137888597Y-44008614D01*
X137663113Y-44102012D01*
X137460184Y-44237606D01*
X137324790Y-44373000D01*
X132675210Y-44373000D01*
X132539816Y-44237606D01*
X132336887Y-44102012D01*
X132111403Y-44008614D01*
X131872031Y-43961000D01*
X131627969Y-43961000D01*
X131388597Y-44008614D01*
X131163113Y-44102012D01*
X130960184Y-44237606D01*
X130824790Y-44373000D01*
X124722932Y-44373000D01*
X124316554Y-44101467D01*
X123618628Y-43812377D01*
X122877715Y-43665000D01*
X122122285Y-43665000D01*
X121381372Y-43812377D01*
X120683446Y-44101467D01*
X120277068Y-44373000D01*
X114175210Y-44373000D01*
X114039816Y-44237606D01*
X113836887Y-44102012D01*
X113611403Y-44008614D01*
X113372031Y-43961000D01*
X113127969Y-43961000D01*
X112888597Y-44008614D01*
X112663113Y-44102012D01*
X112460184Y-44237606D01*
X112324790Y-44373000D01*
X107675210Y-44373000D01*
X107539816Y-44237606D01*
X107336887Y-44102012D01*
X107111403Y-44008614D01*
X106872031Y-43961000D01*
X106627969Y-43961000D01*
X106388597Y-44008614D01*
X106163113Y-44102012D01*
X105960184Y-44237606D01*
X105824790Y-44373000D01*
X89175210Y-44373000D01*
X89039816Y-44237606D01*
X88836887Y-44102012D01*
X88611403Y-44008614D01*
X88372031Y-43961000D01*
X88127969Y-43961000D01*
X87888597Y-44008614D01*
X87663113Y-44102012D01*
X87460184Y-44237606D01*
X87324790Y-44373000D01*
X82675210Y-44373000D01*
X82539816Y-44237606D01*
X82336887Y-44102012D01*
X82111403Y-44008614D01*
X81872031Y-43961000D01*
X81627969Y-43961000D01*
X81388597Y-44008614D01*
X81163113Y-44102012D01*
X80960184Y-44237606D01*
X80824790Y-44373000D01*
X64175210Y-44373000D01*
X64039816Y-44237606D01*
X63836887Y-44102012D01*
X63611403Y-44008614D01*
X63372031Y-43961000D01*
X63127969Y-43961000D01*
X62888597Y-44008614D01*
X62663113Y-44102012D01*
X62460184Y-44237606D01*
X62324790Y-44373000D01*
X57675210Y-44373000D01*
X57539816Y-44237606D01*
X57336887Y-44102012D01*
X57111403Y-44008614D01*
X56872031Y-43961000D01*
X56627969Y-43961000D01*
X56388597Y-44008614D01*
X56163113Y-44102012D01*
X56127000Y-44126142D01*
X56127000Y-39127000D01*
X238840000Y-39127000D01*
X238840000Y-44104092D01*
G36*
X57960184Y-45162394D02*
G01*
X58163113Y-45297988D01*
X58388597Y-45391386D01*
X58627969Y-45439000D01*
X58872031Y-45439000D01*
X59111403Y-45391386D01*
X59336887Y-45297988D01*
X59539816Y-45162394D01*
X59575210Y-45127000D01*
X60424790Y-45127000D01*
X60460184Y-45162394D01*
X60663113Y-45297988D01*
X60888597Y-45391386D01*
X61127969Y-45439000D01*
X61372031Y-45439000D01*
X61611403Y-45391386D01*
X61836887Y-45297988D01*
X62039816Y-45162394D01*
X62075210Y-45127000D01*
X82924790Y-45127000D01*
X82960184Y-45162394D01*
X83163113Y-45297988D01*
X83388597Y-45391386D01*
X83627969Y-45439000D01*
X83872031Y-45439000D01*
X84111403Y-45391386D01*
X84336887Y-45297988D01*
X84539816Y-45162394D01*
X84575210Y-45127000D01*
X85424790Y-45127000D01*
X85460184Y-45162394D01*
X85663113Y-45297988D01*
X85888597Y-45391386D01*
X86127969Y-45439000D01*
X86372031Y-45439000D01*
X86611403Y-45391386D01*
X86836887Y-45297988D01*
X87039816Y-45162394D01*
X87075210Y-45127000D01*
X94703491Y-45127000D01*
X95055330Y-45478839D01*
X95683446Y-45898533D01*
X96381372Y-46187623D01*
X97122285Y-46335000D01*
X97877715Y-46335000D01*
X98618628Y-46187623D01*
X99316554Y-45898533D01*
X99944670Y-45478839D01*
X100296509Y-45127000D01*
X107924790Y-45127000D01*
X107960184Y-45162394D01*
X108163113Y-45297988D01*
X108388597Y-45391386D01*
X108627969Y-45439000D01*
X108872031Y-45439000D01*
X109111403Y-45391386D01*
X109336887Y-45297988D01*
X109539816Y-45162394D01*
X109575210Y-45127000D01*
X110424790Y-45127000D01*
X110460184Y-45162394D01*
X110663113Y-45297988D01*
X110888597Y-45391386D01*
X111127969Y-45439000D01*
X111372031Y-45439000D01*
X111611403Y-45391386D01*
X111836887Y-45297988D01*
X112039816Y-45162394D01*
X112075210Y-45127000D01*
X132924790Y-45127000D01*
X132960184Y-45162394D01*
X133163113Y-45297988D01*
X133388597Y-45391386D01*
X133627969Y-45439000D01*
X133872031Y-45439000D01*
X134111403Y-45391386D01*
X134336887Y-45297988D01*
X134539816Y-45162394D01*
X134575210Y-45127000D01*
X135424790Y-45127000D01*
X135460184Y-45162394D01*
X135663113Y-45297988D01*
X135888597Y-45391386D01*
X136127969Y-45439000D01*
X136372031Y-45439000D01*
X136611403Y-45391386D01*
X136836887Y-45297988D01*
X137039816Y-45162394D01*
X137075210Y-45127000D01*
X157924790Y-45127000D01*
X157960184Y-45162394D01*
X158163113Y-45297988D01*
X158388597Y-45391386D01*
X158627969Y-45439000D01*
X158872031Y-45439000D01*
X159111403Y-45391386D01*
X159336887Y-45297988D01*
X159539816Y-45162394D01*
X159575210Y-45127000D01*
X160424790Y-45127000D01*
X160460184Y-45162394D01*
X160663113Y-45297988D01*
X160888597Y-45391386D01*
X161127969Y-45439000D01*
X161372031Y-45439000D01*
X161611403Y-45391386D01*
X161836887Y-45297988D01*
X162039816Y-45162394D01*
X162075210Y-45127000D01*
X182924790Y-45127000D01*
X182960184Y-45162394D01*
X183163113Y-45297988D01*
X183388597Y-45391386D01*
X183627969Y-45439000D01*
X183872031Y-45439000D01*
X184111403Y-45391386D01*
X184336887Y-45297988D01*
X184539816Y-45162394D01*
X184575210Y-45127000D01*
X185424790Y-45127000D01*
X185460184Y-45162394D01*
X185663113Y-45297988D01*
X185888597Y-45391386D01*
X186127969Y-45439000D01*
X186372031Y-45439000D01*
X186611403Y-45391386D01*
X186836887Y-45297988D01*
X187039816Y-45162394D01*
X187075210Y-45127000D01*
X207924790Y-45127000D01*
X207960184Y-45162394D01*
X208163113Y-45297988D01*
X208388597Y-45391386D01*
X208627969Y-45439000D01*
X208872031Y-45439000D01*
X209111403Y-45391386D01*
X209336887Y-45297988D01*
X209539816Y-45162394D01*
X209575210Y-45127000D01*
X210424790Y-45127000D01*
X210460184Y-45162394D01*
X210663113Y-45297988D01*
X210888597Y-45391386D01*
X211127969Y-45439000D01*
X211372031Y-45439000D01*
X211611403Y-45391386D01*
X211836887Y-45297988D01*
X212039816Y-45162394D01*
X212075210Y-45127000D01*
X232924790Y-45127000D01*
X232960184Y-45162394D01*
X233163113Y-45297988D01*
X233388597Y-45391386D01*
X233627969Y-45439000D01*
X233872031Y-45439000D01*
X234111403Y-45391386D01*
X234336887Y-45297988D01*
X234539816Y-45162394D01*
X234575210Y-45127000D01*
X235424790Y-45127000D01*
X235460184Y-45162394D01*
X235663113Y-45297988D01*
X235888597Y-45391386D01*
X236127969Y-45439000D01*
X236372031Y-45439000D01*
X236611403Y-45391386D01*
X236836887Y-45297988D01*
X237039816Y-45162394D01*
X237075210Y-45127000D01*
X238840000Y-45127000D01*
X238840000Y-50873000D01*
X236524058Y-50873000D01*
X236405919Y-50696192D01*
X236153808Y-50444081D01*
X235857357Y-50245999D01*
X235527958Y-50109557D01*
X235178269Y-50040000D01*
X234821731Y-50040000D01*
X234472042Y-50109557D01*
X234142643Y-50245999D01*
X233846192Y-50444081D01*
X233594081Y-50696192D01*
X233475942Y-50873000D01*
X211524058Y-50873000D01*
X211405919Y-50696192D01*
X211153808Y-50444081D01*
X210857357Y-50245999D01*
X210527958Y-50109557D01*
X210178269Y-50040000D01*
X209821731Y-50040000D01*
X209472042Y-50109557D01*
X209142643Y-50245999D01*
X208846192Y-50444081D01*
X208594081Y-50696192D01*
X208475942Y-50873000D01*
X186524058Y-50873000D01*
X186405919Y-50696192D01*
X186153808Y-50444081D01*
X185857357Y-50245999D01*
X185527958Y-50109557D01*
X185178269Y-50040000D01*
X184821731Y-50040000D01*
X184472042Y-50109557D01*
X184142643Y-50245999D01*
X183846192Y-50444081D01*
X183594081Y-50696192D01*
X183475942Y-50873000D01*
X161524058Y-50873000D01*
X161405919Y-50696192D01*
X161153808Y-50444081D01*
X160857357Y-50245999D01*
X160527958Y-50109557D01*
X160178269Y-50040000D01*
X159821731Y-50040000D01*
X159472042Y-50109557D01*
X159142643Y-50245999D01*
X158846192Y-50444081D01*
X158594081Y-50696192D01*
X158475942Y-50873000D01*
X136524058Y-50873000D01*
X136405919Y-50696192D01*
X136153808Y-50444081D01*
X135857357Y-50245999D01*
X135527958Y-50109557D01*
X135178269Y-50040000D01*
X134821731Y-50040000D01*
X134472042Y-50109557D01*
X134142643Y-50245999D01*
X133846192Y-50444081D01*
X133594081Y-50696192D01*
X133475942Y-50873000D01*
X111524058Y-50873000D01*
X111405919Y-50696192D01*
X111153808Y-50444081D01*
X110857357Y-50245999D01*
X110527958Y-50109557D01*
X110178269Y-50040000D01*
X109821731Y-50040000D01*
X109472042Y-50109557D01*
X109142643Y-50245999D01*
X108846192Y-50444081D01*
X108594081Y-50696192D01*
X108475942Y-50873000D01*
X86524058Y-50873000D01*
X86405919Y-50696192D01*
X86153808Y-50444081D01*
X85857357Y-50245999D01*
X85527958Y-50109557D01*
X85178269Y-50040000D01*
X84821731Y-50040000D01*
X84472042Y-50109557D01*
X84142643Y-50245999D01*
X83846192Y-50444081D01*
X83594081Y-50696192D01*
X83475942Y-50873000D01*
X61524058Y-50873000D01*
X61405919Y-50696192D01*
X61153808Y-50444081D01*
X60857357Y-50245999D01*
X60527958Y-50109557D01*
X60178269Y-50040000D01*
X59821731Y-50040000D01*
X59472042Y-50109557D01*
X59142643Y-50245999D01*
X58846192Y-50444081D01*
X58594081Y-50696192D01*
X58475942Y-50873000D01*
X56127000Y-50873000D01*
X56127000Y-45127000D01*
X57924790Y-45127000D01*
X57960184Y-45162394D01*
G37*
X57960184Y-45162394D02*
X58163113Y-45297988D01*
X58388597Y-45391386D01*
X58627969Y-45439000D01*
X58872031Y-45439000D01*
X59111403Y-45391386D01*
X59336887Y-45297988D01*
X59539816Y-45162394D01*
X59575210Y-45127000D01*
X60424790Y-45127000D01*
X60460184Y-45162394D01*
X60663113Y-45297988D01*
X60888597Y-45391386D01*
X61127969Y-45439000D01*
X61372031Y-45439000D01*
X61611403Y-45391386D01*
X61836887Y-45297988D01*
X62039816Y-45162394D01*
X62075210Y-45127000D01*
X82924790Y-45127000D01*
X82960184Y-45162394D01*
X83163113Y-45297988D01*
X83388597Y-45391386D01*
X83627969Y-45439000D01*
X83872031Y-45439000D01*
X84111403Y-45391386D01*
X84336887Y-45297988D01*
X84539816Y-45162394D01*
X84575210Y-45127000D01*
X85424790Y-45127000D01*
X85460184Y-45162394D01*
X85663113Y-45297988D01*
X85888597Y-45391386D01*
X86127969Y-45439000D01*
X86372031Y-45439000D01*
X86611403Y-45391386D01*
X86836887Y-45297988D01*
X87039816Y-45162394D01*
X87075210Y-45127000D01*
X94703491Y-45127000D01*
X95055330Y-45478839D01*
X95683446Y-45898533D01*
X96381372Y-46187623D01*
X97122285Y-46335000D01*
X97877715Y-46335000D01*
X98618628Y-46187623D01*
X99316554Y-45898533D01*
X99944670Y-45478839D01*
X100296509Y-45127000D01*
X107924790Y-45127000D01*
X107960184Y-45162394D01*
X108163113Y-45297988D01*
X108388597Y-45391386D01*
X108627969Y-45439000D01*
X108872031Y-45439000D01*
X109111403Y-45391386D01*
X109336887Y-45297988D01*
X109539816Y-45162394D01*
X109575210Y-45127000D01*
X110424790Y-45127000D01*
X110460184Y-45162394D01*
X110663113Y-45297988D01*
X110888597Y-45391386D01*
X111127969Y-45439000D01*
X111372031Y-45439000D01*
X111611403Y-45391386D01*
X111836887Y-45297988D01*
X112039816Y-45162394D01*
X112075210Y-45127000D01*
X132924790Y-45127000D01*
X132960184Y-45162394D01*
X133163113Y-45297988D01*
X133388597Y-45391386D01*
X133627969Y-45439000D01*
X133872031Y-45439000D01*
X134111403Y-45391386D01*
X134336887Y-45297988D01*
X134539816Y-45162394D01*
X134575210Y-45127000D01*
X135424790Y-45127000D01*
X135460184Y-45162394D01*
X135663113Y-45297988D01*
X135888597Y-45391386D01*
X136127969Y-45439000D01*
X136372031Y-45439000D01*
X136611403Y-45391386D01*
X136836887Y-45297988D01*
X137039816Y-45162394D01*
X137075210Y-45127000D01*
X157924790Y-45127000D01*
X157960184Y-45162394D01*
X158163113Y-45297988D01*
X158388597Y-45391386D01*
X158627969Y-45439000D01*
X158872031Y-45439000D01*
X159111403Y-45391386D01*
X159336887Y-45297988D01*
X159539816Y-45162394D01*
X159575210Y-45127000D01*
X160424790Y-45127000D01*
X160460184Y-45162394D01*
X160663113Y-45297988D01*
X160888597Y-45391386D01*
X161127969Y-45439000D01*
X161372031Y-45439000D01*
X161611403Y-45391386D01*
X161836887Y-45297988D01*
X162039816Y-45162394D01*
X162075210Y-45127000D01*
X182924790Y-45127000D01*
X182960184Y-45162394D01*
X183163113Y-45297988D01*
X183388597Y-45391386D01*
X183627969Y-45439000D01*
X183872031Y-45439000D01*
X184111403Y-45391386D01*
X184336887Y-45297988D01*
X184539816Y-45162394D01*
X184575210Y-45127000D01*
X185424790Y-45127000D01*
X185460184Y-45162394D01*
X185663113Y-45297988D01*
X185888597Y-45391386D01*
X186127969Y-45439000D01*
X186372031Y-45439000D01*
X186611403Y-45391386D01*
X186836887Y-45297988D01*
X187039816Y-45162394D01*
X187075210Y-45127000D01*
X207924790Y-45127000D01*
X207960184Y-45162394D01*
X208163113Y-45297988D01*
X208388597Y-45391386D01*
X208627969Y-45439000D01*
X208872031Y-45439000D01*
X209111403Y-45391386D01*
X209336887Y-45297988D01*
X209539816Y-45162394D01*
X209575210Y-45127000D01*
X210424790Y-45127000D01*
X210460184Y-45162394D01*
X210663113Y-45297988D01*
X210888597Y-45391386D01*
X211127969Y-45439000D01*
X211372031Y-45439000D01*
X211611403Y-45391386D01*
X211836887Y-45297988D01*
X212039816Y-45162394D01*
X212075210Y-45127000D01*
X232924790Y-45127000D01*
X232960184Y-45162394D01*
X233163113Y-45297988D01*
X233388597Y-45391386D01*
X233627969Y-45439000D01*
X233872031Y-45439000D01*
X234111403Y-45391386D01*
X234336887Y-45297988D01*
X234539816Y-45162394D01*
X234575210Y-45127000D01*
X235424790Y-45127000D01*
X235460184Y-45162394D01*
X235663113Y-45297988D01*
X235888597Y-45391386D01*
X236127969Y-45439000D01*
X236372031Y-45439000D01*
X236611403Y-45391386D01*
X236836887Y-45297988D01*
X237039816Y-45162394D01*
X237075210Y-45127000D01*
X238840000Y-45127000D01*
X238840000Y-50873000D01*
X236524058Y-50873000D01*
X236405919Y-50696192D01*
X236153808Y-50444081D01*
X235857357Y-50245999D01*
X235527958Y-50109557D01*
X235178269Y-50040000D01*
X234821731Y-50040000D01*
X234472042Y-50109557D01*
X234142643Y-50245999D01*
X233846192Y-50444081D01*
X233594081Y-50696192D01*
X233475942Y-50873000D01*
X211524058Y-50873000D01*
X211405919Y-50696192D01*
X211153808Y-50444081D01*
X210857357Y-50245999D01*
X210527958Y-50109557D01*
X210178269Y-50040000D01*
X209821731Y-50040000D01*
X209472042Y-50109557D01*
X209142643Y-50245999D01*
X208846192Y-50444081D01*
X208594081Y-50696192D01*
X208475942Y-50873000D01*
X186524058Y-50873000D01*
X186405919Y-50696192D01*
X186153808Y-50444081D01*
X185857357Y-50245999D01*
X185527958Y-50109557D01*
X185178269Y-50040000D01*
X184821731Y-50040000D01*
X184472042Y-50109557D01*
X184142643Y-50245999D01*
X183846192Y-50444081D01*
X183594081Y-50696192D01*
X183475942Y-50873000D01*
X161524058Y-50873000D01*
X161405919Y-50696192D01*
X161153808Y-50444081D01*
X160857357Y-50245999D01*
X160527958Y-50109557D01*
X160178269Y-50040000D01*
X159821731Y-50040000D01*
X159472042Y-50109557D01*
X159142643Y-50245999D01*
X158846192Y-50444081D01*
X158594081Y-50696192D01*
X158475942Y-50873000D01*
X136524058Y-50873000D01*
X136405919Y-50696192D01*
X136153808Y-50444081D01*
X135857357Y-50245999D01*
X135527958Y-50109557D01*
X135178269Y-50040000D01*
X134821731Y-50040000D01*
X134472042Y-50109557D01*
X134142643Y-50245999D01*
X133846192Y-50444081D01*
X133594081Y-50696192D01*
X133475942Y-50873000D01*
X111524058Y-50873000D01*
X111405919Y-50696192D01*
X111153808Y-50444081D01*
X110857357Y-50245999D01*
X110527958Y-50109557D01*
X110178269Y-50040000D01*
X109821731Y-50040000D01*
X109472042Y-50109557D01*
X109142643Y-50245999D01*
X108846192Y-50444081D01*
X108594081Y-50696192D01*
X108475942Y-50873000D01*
X86524058Y-50873000D01*
X86405919Y-50696192D01*
X86153808Y-50444081D01*
X85857357Y-50245999D01*
X85527958Y-50109557D01*
X85178269Y-50040000D01*
X84821731Y-50040000D01*
X84472042Y-50109557D01*
X84142643Y-50245999D01*
X83846192Y-50444081D01*
X83594081Y-50696192D01*
X83475942Y-50873000D01*
X61524058Y-50873000D01*
X61405919Y-50696192D01*
X61153808Y-50444081D01*
X60857357Y-50245999D01*
X60527958Y-50109557D01*
X60178269Y-50040000D01*
X59821731Y-50040000D01*
X59472042Y-50109557D01*
X59142643Y-50245999D01*
X58846192Y-50444081D01*
X58594081Y-50696192D01*
X58475942Y-50873000D01*
X56127000Y-50873000D01*
X56127000Y-45127000D01*
X57924790Y-45127000D01*
X57960184Y-45162394D01*
M02*
