M48
; DRILL file {KiCad 5.1.5} date wto, 28 kwi 2020, 21:46:40
; FORMAT={-:-/ absolute / metric / decimal}
; #@! TF.CreationDate,2020-04-28T21:46:40+02:00
; #@! TF.GenerationSoftware,Kicad,Pcbnew,5.1.5
; #@! TF.FileFunction,Plated,1,2,PTH
FMAT,2
METRIC
T1C0.500
T2C0.700
T3C3.200
%
G90
G05
T1
X95.1Y-42.5
X95.803Y-40.803
X95.803Y-44.197
X97.5Y-40.1
X97.5Y-44.9
X99.197Y-40.803
X99.197Y-44.197
X99.9Y-42.5
X120.1Y-47.5
X120.803Y-45.803
X120.803Y-49.197
X122.5Y-45.1
X122.5Y-49.9
X124.197Y-45.803
X124.197Y-49.197
X124.9Y-47.5
T2
X106.75Y-41.2
X106.75Y-43.2
X106.75Y-45.2
X106.75Y-47.2
X106.75Y-49.2
X106.75Y-53.2
X106.75Y-55.2
X106.75Y-57.2
X106.75Y-59.2
X106.75Y-61.2
X106.75Y-63.2
X106.75Y-65.2
X106.75Y-67.2
X106.75Y-69.2
X106.75Y-71.2
X106.75Y-73.2
X108.75Y-40.2
X108.75Y-42.2
X108.75Y-44.2
X108.75Y-46.2
X108.75Y-48.2
X108.75Y-50.2
X108.75Y-54.2
X108.75Y-56.2
X108.75Y-58.2
X108.75Y-60.2
X108.75Y-62.2
X108.75Y-64.2
X108.75Y-66.2
X108.75Y-68.2
X108.75Y-70.2
X108.75Y-72.2
X111.25Y-40.2
X111.25Y-42.2
X111.25Y-44.2
X111.25Y-46.2
X111.25Y-48.2
X111.25Y-50.2
X111.25Y-54.2
X111.25Y-56.2
X111.25Y-58.2
X111.25Y-60.2
X111.25Y-62.2
X111.25Y-64.2
X111.25Y-66.2
X111.25Y-68.2
X111.25Y-70.2
X111.25Y-72.2
X113.25Y-41.2
X113.25Y-43.2
X113.25Y-45.2
X113.25Y-47.2
X113.25Y-49.2
X113.25Y-53.2
X113.25Y-55.2
X113.25Y-57.2
X113.25Y-59.2
X113.25Y-61.2
X113.25Y-63.2
X113.25Y-65.2
X113.25Y-67.2
X113.25Y-69.2
X113.25Y-71.2
X113.25Y-73.2
X206.75Y-41.2
X206.75Y-43.2
X206.75Y-45.2
X206.75Y-47.2
X206.75Y-49.2
X206.75Y-53.2
X206.75Y-55.2
X206.75Y-57.2
X206.75Y-59.2
X206.75Y-61.2
X206.75Y-63.2
X206.75Y-65.2
X206.75Y-67.2
X206.75Y-69.2
X206.75Y-71.2
X206.75Y-73.2
X208.75Y-40.2
X208.75Y-42.2
X208.75Y-44.2
X208.75Y-46.2
X208.75Y-48.2
X208.75Y-50.2
X208.75Y-54.2
X208.75Y-56.2
X208.75Y-58.2
X208.75Y-60.2
X208.75Y-62.2
X208.75Y-64.2
X208.75Y-66.2
X208.75Y-68.2
X208.75Y-70.2
X208.75Y-72.2
X211.25Y-40.2
X211.25Y-42.2
X211.25Y-44.2
X211.25Y-46.2
X211.25Y-48.2
X211.25Y-50.2
X211.25Y-54.2
X211.25Y-56.2
X211.25Y-58.2
X211.25Y-60.2
X211.25Y-62.2
X211.25Y-64.2
X211.25Y-66.2
X211.25Y-68.2
X211.25Y-70.2
X211.25Y-72.2
X213.25Y-41.2
X213.25Y-43.2
X213.25Y-45.2
X213.25Y-47.2
X213.25Y-49.2
X213.25Y-53.2
X213.25Y-55.2
X213.25Y-57.2
X213.25Y-59.2
X213.25Y-61.2
X213.25Y-63.2
X213.25Y-65.2
X213.25Y-67.2
X213.25Y-69.2
X213.25Y-71.2
X213.25Y-73.2
X156.75Y-41.2
X156.75Y-43.2
X156.75Y-45.2
X156.75Y-47.2
X156.75Y-49.2
X156.75Y-53.2
X156.75Y-55.2
X156.75Y-57.2
X156.75Y-59.2
X156.75Y-61.2
X156.75Y-63.2
X156.75Y-65.2
X156.75Y-67.2
X156.75Y-69.2
X156.75Y-71.2
X156.75Y-73.2
X158.75Y-40.2
X158.75Y-42.2
X158.75Y-44.2
X158.75Y-46.2
X158.75Y-48.2
X158.75Y-50.2
X158.75Y-54.2
X158.75Y-56.2
X158.75Y-58.2
X158.75Y-60.2
X158.75Y-62.2
X158.75Y-64.2
X158.75Y-66.2
X158.75Y-68.2
X158.75Y-70.2
X158.75Y-72.2
X161.25Y-40.2
X161.25Y-42.2
X161.25Y-44.2
X161.25Y-46.2
X161.25Y-48.2
X161.25Y-50.2
X161.25Y-54.2
X161.25Y-56.2
X161.25Y-58.2
X161.25Y-60.2
X161.25Y-62.2
X161.25Y-64.2
X161.25Y-66.2
X161.25Y-68.2
X161.25Y-70.2
X161.25Y-72.2
X163.25Y-41.2
X163.25Y-43.2
X163.25Y-45.2
X163.25Y-47.2
X163.25Y-49.2
X163.25Y-53.2
X163.25Y-55.2
X163.25Y-57.2
X163.25Y-59.2
X163.25Y-61.2
X163.25Y-63.2
X163.25Y-65.2
X163.25Y-67.2
X163.25Y-69.2
X163.25Y-71.2
X163.25Y-73.2
X81.75Y-41.2
X81.75Y-43.2
X81.75Y-45.2
X81.75Y-47.2
X81.75Y-49.2
X81.75Y-53.2
X81.75Y-55.2
X81.75Y-57.2
X81.75Y-59.2
X81.75Y-61.2
X81.75Y-63.2
X81.75Y-65.2
X81.75Y-67.2
X81.75Y-69.2
X81.75Y-71.2
X81.75Y-73.2
X83.75Y-40.2
X83.75Y-42.2
X83.75Y-44.2
X83.75Y-46.2
X83.75Y-48.2
X83.75Y-50.2
X83.75Y-54.2
X83.75Y-56.2
X83.75Y-58.2
X83.75Y-60.2
X83.75Y-62.2
X83.75Y-64.2
X83.75Y-66.2
X83.75Y-68.2
X83.75Y-70.2
X83.75Y-72.2
X86.25Y-40.2
X86.25Y-42.2
X86.25Y-44.2
X86.25Y-46.2
X86.25Y-48.2
X86.25Y-50.2
X86.25Y-54.2
X86.25Y-56.2
X86.25Y-58.2
X86.25Y-60.2
X86.25Y-62.2
X86.25Y-64.2
X86.25Y-66.2
X86.25Y-68.2
X86.25Y-70.2
X86.25Y-72.2
X88.25Y-41.2
X88.25Y-43.2
X88.25Y-45.2
X88.25Y-47.2
X88.25Y-49.2
X88.25Y-53.2
X88.25Y-55.2
X88.25Y-57.2
X88.25Y-59.2
X88.25Y-61.2
X88.25Y-63.2
X88.25Y-65.2
X88.25Y-67.2
X88.25Y-69.2
X88.25Y-71.2
X88.25Y-73.2
X56.75Y-41.2
X56.75Y-43.2
X56.75Y-45.2
X56.75Y-47.2
X56.75Y-49.2
X56.75Y-53.2
X56.75Y-55.2
X56.75Y-57.2
X56.75Y-59.2
X56.75Y-61.2
X56.75Y-63.2
X56.75Y-65.2
X56.75Y-67.2
X56.75Y-69.2
X56.75Y-71.2
X56.75Y-73.2
X58.75Y-40.2
X58.75Y-42.2
X58.75Y-44.2
X58.75Y-46.2
X58.75Y-48.2
X58.75Y-50.2
X58.75Y-54.2
X58.75Y-56.2
X58.75Y-58.2
X58.75Y-60.2
X58.75Y-62.2
X58.75Y-64.2
X58.75Y-66.2
X58.75Y-68.2
X58.75Y-70.2
X58.75Y-72.2
X61.25Y-40.2
X61.25Y-42.2
X61.25Y-44.2
X61.25Y-46.2
X61.25Y-48.2
X61.25Y-50.2
X61.25Y-54.2
X61.25Y-56.2
X61.25Y-58.2
X61.25Y-60.2
X61.25Y-62.2
X61.25Y-64.2
X61.25Y-66.2
X61.25Y-68.2
X61.25Y-70.2
X61.25Y-72.2
X63.25Y-41.2
X63.25Y-43.2
X63.25Y-45.2
X63.25Y-47.2
X63.25Y-49.2
X63.25Y-53.2
X63.25Y-55.2
X63.25Y-57.2
X63.25Y-59.2
X63.25Y-61.2
X63.25Y-63.2
X63.25Y-65.2
X63.25Y-67.2
X63.25Y-69.2
X63.25Y-71.2
X63.25Y-73.2
X131.75Y-41.2
X131.75Y-43.2
X131.75Y-45.2
X131.75Y-47.2
X131.75Y-49.2
X131.75Y-53.2
X131.75Y-55.2
X131.75Y-57.2
X131.75Y-59.2
X131.75Y-61.2
X131.75Y-63.2
X131.75Y-65.2
X131.75Y-67.2
X131.75Y-69.2
X131.75Y-71.2
X131.75Y-73.2
X133.75Y-40.2
X133.75Y-42.2
X133.75Y-44.2
X133.75Y-46.2
X133.75Y-48.2
X133.75Y-50.2
X133.75Y-54.2
X133.75Y-56.2
X133.75Y-58.2
X133.75Y-60.2
X133.75Y-62.2
X133.75Y-64.2
X133.75Y-66.2
X133.75Y-68.2
X133.75Y-70.2
X133.75Y-72.2
X136.25Y-40.2
X136.25Y-42.2
X136.25Y-44.2
X136.25Y-46.2
X136.25Y-48.2
X136.25Y-50.2
X136.25Y-54.2
X136.25Y-56.2
X136.25Y-58.2
X136.25Y-60.2
X136.25Y-62.2
X136.25Y-64.2
X136.25Y-66.2
X136.25Y-68.2
X136.25Y-70.2
X136.25Y-72.2
X138.25Y-41.2
X138.25Y-43.2
X138.25Y-45.2
X138.25Y-47.2
X138.25Y-49.2
X138.25Y-53.2
X138.25Y-55.2
X138.25Y-57.2
X138.25Y-59.2
X138.25Y-61.2
X138.25Y-63.2
X138.25Y-65.2
X138.25Y-67.2
X138.25Y-69.2
X138.25Y-71.2
X138.25Y-73.2
X181.75Y-41.2
X181.75Y-43.2
X181.75Y-45.2
X181.75Y-47.2
X181.75Y-49.2
X181.75Y-53.2
X181.75Y-55.2
X181.75Y-57.2
X181.75Y-59.2
X181.75Y-61.2
X181.75Y-63.2
X181.75Y-65.2
X181.75Y-67.2
X181.75Y-69.2
X181.75Y-71.2
X181.75Y-73.2
X183.75Y-40.2
X183.75Y-42.2
X183.75Y-44.2
X183.75Y-46.2
X183.75Y-48.2
X183.75Y-50.2
X183.75Y-54.2
X183.75Y-56.2
X183.75Y-58.2
X183.75Y-60.2
X183.75Y-62.2
X183.75Y-64.2
X183.75Y-66.2
X183.75Y-68.2
X183.75Y-70.2
X183.75Y-72.2
X186.25Y-40.2
X186.25Y-42.2
X186.25Y-44.2
X186.25Y-46.2
X186.25Y-48.2
X186.25Y-50.2
X186.25Y-54.2
X186.25Y-56.2
X186.25Y-58.2
X186.25Y-60.2
X186.25Y-62.2
X186.25Y-64.2
X186.25Y-66.2
X186.25Y-68.2
X186.25Y-70.2
X186.25Y-72.2
X188.25Y-41.2
X188.25Y-43.2
X188.25Y-45.2
X188.25Y-47.2
X188.25Y-49.2
X188.25Y-53.2
X188.25Y-55.2
X188.25Y-57.2
X188.25Y-59.2
X188.25Y-61.2
X188.25Y-63.2
X188.25Y-65.2
X188.25Y-67.2
X188.25Y-69.2
X188.25Y-71.2
X188.25Y-73.2
X231.75Y-41.2
X231.75Y-43.2
X231.75Y-45.2
X231.75Y-47.2
X231.75Y-49.2
X231.75Y-53.2
X231.75Y-55.2
X231.75Y-57.2
X231.75Y-59.2
X231.75Y-61.2
X231.75Y-63.2
X231.75Y-65.2
X231.75Y-67.2
X231.75Y-69.2
X231.75Y-71.2
X231.75Y-73.2
X233.75Y-40.2
X233.75Y-42.2
X233.75Y-44.2
X233.75Y-46.2
X233.75Y-48.2
X233.75Y-50.2
X233.75Y-54.2
X233.75Y-56.2
X233.75Y-58.2
X233.75Y-60.2
X233.75Y-62.2
X233.75Y-64.2
X233.75Y-66.2
X233.75Y-68.2
X233.75Y-70.2
X233.75Y-72.2
X236.25Y-40.2
X236.25Y-42.2
X236.25Y-44.2
X236.25Y-46.2
X236.25Y-48.2
X236.25Y-50.2
X236.25Y-54.2
X236.25Y-56.2
X236.25Y-58.2
X236.25Y-60.2
X236.25Y-62.2
X236.25Y-64.2
X236.25Y-66.2
X236.25Y-68.2
X236.25Y-70.2
X236.25Y-72.2
X238.25Y-41.2
X238.25Y-43.2
X238.25Y-45.2
X238.25Y-47.2
X238.25Y-49.2
X238.25Y-53.2
X238.25Y-55.2
X238.25Y-57.2
X238.25Y-59.2
X238.25Y-61.2
X238.25Y-63.2
X238.25Y-65.2
X238.25Y-67.2
X238.25Y-69.2
X238.25Y-71.2
X238.25Y-73.2
T3
X97.5Y-42.5
X122.5Y-47.5
T0
M30
